<?xml version="1.0" standalone="no"?> 
<!DOCTYPE svg PUBLIC "-//W3C//DTD SVG 1.1//EN" "http://www.w3.org/Graphics/SVG/1.1/DTD/svg11.dtd" >
<svg xmlns="http://www.w3.org/2000/svg">
<defs>
  <font id="tnt-iconset" horiz-adv-x="623.622">
    <font-face font-family="tnt-iconset"
      units-per-em="320.004" ascent="320.004"
      descent="0" />
    <missing-glyph horiz-adv-x="0" />
    <glyph glyph-name="0001-air-plane"
      unicode="&#xE001;"
      horiz-adv-x="320" d=" M226.492 96.801L226.512 177.618C226.453 182.514 228.328 187.125 231.785 190.577L252.996 211.767C264.147 222.955 264.147 241.152 252.996 252.333V252.353C247.557 257.773 240.369 260.766 232.684 260.766C225.038 260.766 217.84 257.773 212.412 252.353L191.22 231.167C187.743 227.705 183.154 225.835 178.154 225.913L97.432 225.853C91.719 225.853 86.343 223.631 82.3 219.583C78.262 215.535 76.03 210.174 76.03 204.44C76.02 198.673 78.379 193.253 82.329 189.294C84.072 187.551 86.108 186.101 88.398 185.022L124.252 171.384L131.869 179.983L92.777 194.841C89.12 196.623 86.771 200.373 86.771 204.441C86.771 207.284 87.87 209.973 89.881 211.97C91.888 213.972 94.569 215.08 97.42 215.08L178.074 215.142C185.906 215.031 193.268 217.998 198.805 223.55L219.987 244.761C223.3949999999999 248.14 227.897 250.01 232.664 250.01C237.4769999999999 250.01 241.961 248.13 245.35 244.761L245.35 244.761C252.352 237.749 252.352 226.392 245.35 219.4L224.161 198.21C218.634 192.673 215.636 185.31 215.753 177.561L215.714 96.818C215.714 90.939 210.929 86.164 205.068 86.164C200.986 86.164 197.256 88.518 195.468 92.189L179.91 133.09L171.276 125.444L185.631 87.799C189.137 80.26 196.764 75.404 205.045 75.426C216.842 75.397 226.451 85.006 226.451 96.803H226.491V96.801z M142.337 108.285C142.327 109.711 142.85 111 143.607 111.762L195.184 157.485V171.856L136.248 119.605C133.186 116.548 131.541 112.466 131.6 108.189L131.58 71.841C131.58 70.816 130.76 69.976 129.729 69.976C129.099 69.976 128.669 70.279 128.547 70.396C127.238 71.919 117.81 85.474 111.526 94.615L109.548 97.508L106.12 96.862C106.12 96.862 104.26 96.51 101.408 95.856C97.136 94.85 94.235 97.78 95.217 102.04C95.886 104.909 96.238 106.757 96.238 106.757L96.878 110.204L93.987 112.155C84.846 118.466 71.287 127.897 69.929 129.051C69.67 129.305 69.358 129.754 69.358 130.369C69.358 131.392 70.178 132.232 71.209 132.232L107.508 132.253C111.839 132.192 115.931 133.845 119.207 137.136L171.228 195.846H156.858L111.379 144.499C110.378 143.503 109.079 142.983 107.6 143.005L71.228 142.976C64.28 142.966 58.64 137.312 58.64 130.369C58.64 127.01 59.968 123.826 62.356 121.433C63.44 120.359 71.047 114.939 84.978 105.349C84.91 105.056 84.836 104.773 84.778 104.46C83.421 98.64 84.846 93.093 88.679 89.255C92.507 85.417 98.039 84.011 103.879 85.359C104.187 85.447 104.48 85.496 104.758 85.574C114.348 71.638 119.758 64.031 120.857 62.937C123.259 60.554 126.428 59.236 129.797 59.236C136.735 59.236 142.39 64.89 142.39 71.824V108.277L142.337 108.285z" />
    <glyph glyph-name="0002-alarm-10"
      unicode="&#xE002;"
      horiz-adv-x="320" d=" M185.625 230.564L182.266 220.204C212.08 210.536 232.12 182.962 232.12 151.613C232.12 111.839 199.786 79.474 160.011 79.474C120.24 79.474 87.902 111.837 87.902 151.603C87.902 189.523 117.331 220.701 154.562 223.494V160.452L120.533 177.626L115.621 167.895L157.55 146.731C159.259 145.881 161.261 145.96 162.862 146.957C164.477 147.953 165.46 149.711 165.46 151.596V229.153C165.46 230.593 164.8900000000001 231.97 163.8730000000001 233.002C162.8430000000001 234.023 161.4510000000001 234.594 160.001 234.594C114.23 234.594 77.003 197.363 77.003 151.605C77.003 105.824 114.23 68.579 160.001 68.579C205.7720000000001 68.579 242.999 105.814 242.999 151.605C242.999 187.694 219.942 219.433 185.626 230.556V230.564z M224.121 234.382C214.639 241.784 203.887 247.624 192.207 251.423L188.848 241.023C199.297 237.634 208.926 232.416 217.403 225.813L224.123 234.392L224.121 234.382L224.121 234.382z M130.991 241.023L127.632 251.423C115.943 247.634 105.2 241.794 95.718 234.382L102.451 225.803C110.928 232.414 120.532 237.624 130.991 241.013V241.023z" />
    <glyph glyph-name="0003-alarm-12"
      unicode="&#xE003;"
      horiz-adv-x="320" d=" M185.616 230.563L182.257 220.202C212.091 210.534 232.12 182.961 232.12 151.594C232.12 111.819 199.776 79.475 160.011 79.475C120.24 79.475 87.902 111.838 87.902 151.594C87.902 189.514 117.321 220.691 154.533 223.493V161.13C154.533 158.103 156.979 155.651 160.012 155.651C163.034 155.651 165.481 158.112 165.481 161.13V228.982C165.481 229.031 165.461 229.07 165.461 229.104V229.153C165.461 230.593 164.89 231.97 163.874 233.001C162.844 234.022 161.452 234.593 160.002 234.593C114.231 234.593 76.989 197.362 76.989 151.585C76.989 105.804 114.22 68.577 160.002 68.577S243.01 105.813 243.01 151.595C243.009 187.692 219.942 219.431 185.616 230.563z M224.229 234.382C214.756 241.784 203.975 247.624 192.315 251.423L188.956 241.023C199.405 237.634 209.015 232.415 217.511 225.813L224.24 234.392L224.229 234.382z M131.1 241.022L127.741 251.4220000000001C116.052 247.633 105.3 241.793 95.832 234.3810000000001L102.551 225.802C111.042 232.413 120.652 237.623 131.101 241.012V241.022z" />
    <glyph glyph-name="0004-alarm-6"
      unicode="&#xE004;"
      horiz-adv-x="320" d=" M160.016 147.972C156.984 147.972 154.537 145.501 154.537 142.493V103.753H165.495V142.493C165.494 145.511 163.047 147.972 160.016 147.972z M185.641 230.633L182.262 220.203C212.066 210.535 232.096 182.98 232.096 151.624C232.096 111.878 199.762 79.534 160.006 79.534C120.245 79.534 87.916 111.878 87.916 151.624C87.916 189.523 117.315 220.682 154.518 223.494V161.149C154.518 158.123 156.974 155.67 159.997 155.67C163.015 155.67 165.476 158.121 165.476 161.149V179.9L165.486 229.172C165.486 230.622 164.905 232.014 163.88 233.054C162.859 234.084 161.458 234.66 159.999 234.66C114.208 234.66 76.957 197.424 76.957 151.633S114.208 68.576 159.999 68.576C205.78 68.576 243.046 105.842 243.046 151.633C243.046 187.74 219.96 219.48 185.624 230.632L185.641 230.633L185.641 230.633z M224.272 234.383C214.78 241.785 204.039 247.625 192.358 251.424L189 241.023C199.449 237.626 209.059 232.4 217.545 225.803L224.272 234.383z M131.133 241.023L127.774 251.423C116.075 247.634 105.337 241.794 95.855 234.382L102.584 225.803C111.084 232.415 120.693 237.625 131.133 241.023z" />
    <glyph glyph-name="0005-alarm-9"
      unicode="&#xE005;"
      horiz-adv-x="320" d=" M185.616 230.554L182.257 220.202C212.07 210.523 232.11 182.951 232.11 151.594C232.11 111.848 199.756 79.485 160.002 79.485C120.241 79.485 87.893 111.848 87.893 151.594C87.893 189.524 117.322 220.71 154.553 223.503V157.053H112.11V146.155H159.991C162.999 146.155 165.439 148.606 165.439 151.604V229.164C165.439 230.603 164.877 231.98 163.853 233.017C162.832 234.034 161.451 234.614 159.999 234.614C114.228 234.614 77.001 197.374 77.001 151.596C77.001 105.815 114.228 68.588 159.999 68.588C205.77 68.588 242.997 105.823 242.997 151.596C242.997 187.704 219.94 219.423 185.634 230.566L185.616 230.554z M224.27 234.372C214.778 241.773 204.036 247.603 192.356 251.402L188.997 241.003C199.446 237.605 209.036 232.39 217.532 225.783L224.27 234.361V234.372z M131.129 241.013L127.77 251.413C116.09 247.624 105.343 241.784 95.861 234.372L102.59 225.793C111.081 232.39 120.691 237.613 131.13 241.003L131.129 241.013L131.129 241.013z" />
    <glyph glyph-name="0006-anchor-add"
      unicode="&#xE006;"
      horiz-adv-x="320" d=" M266.659 319.991H53.339C23.871 319.991 0.009 296.1090000000001 0.009 266.661V53.341C0.009 23.878 23.871 0.011 53.339 0.011H266.659C296.122 0.011 319.9890000000001 23.878 319.9890000000001 53.341V266.661C320.009 296.109 296.142 319.991 266.659 319.991zM256.024 140.636H179.442V63.976H140.57V140.636H64.027V179.371H140.57V256.031H179.442V179.371H255.985V140.636H256.024z" />
    <glyph glyph-name="0007-anchor-bottom"
      unicode="&#xE007;"
      horiz-adv-x="320" d=" M159.988 320C71.629 320 0.017 248.369 0.017 159.99S71.619 0 159.988 0S319.978 71.602 319.978 159.99S248.309 320 159.988 320zM159.988 34.102C90.608 34.102 34.207 90.567 34.207 159.952C34.207 229.332 90.608 285.802 159.988 285.802C229.373 285.802 285.808 229.352 285.808 159.982C285.808 90.607 229.353 34.113 159.988 34.113V34.102zM223.689 194.019L247.859 169.8L172.029 94.063C168.709 90.743 164.309 89.063 159.968 89.063C155.608 89.063 151.218 90.723 147.878 94.063L72.048 169.888L96.198 194.019L159.948 130.293L223.698 194.019H223.689z" />
    <glyph glyph-name="0008-anchor-check"
      unicode="&#xE008;"
      horiz-adv-x="320" d=" M159.999 319.997C71.612 319.997 0.012 248.368 0.012 159.99C0.012 71.613 71.612 0.003 159.999 0.003C248.386 0.003 319.986 71.604 319.986 159.99C319.967 248.377 248.356 319.997 159.999 319.997zM159.999 34.104C90.62 34.104 34.2 90.568 34.2 159.952C34.2 229.331 90.6 285.819 159.999 285.819C229.363 285.819 285.798 229.35 285.798 159.971C285.798 90.587 229.344 34.104 159.999 34.104z M138.881 110.509L99.458 149.932L87.598 138.067L130.659 95.011C131.88 93.79 133.242 92.863 134.77 92.189C136.279 91.525 137.9 91.183 139.599 91.183H140.698C142.519 91.427 144.228 92.033 145.81 92.999C147.387 93.966 148.73 95.255 149.819 96.837L228.465 213.607L214.598 222.919L138.872 110.509H138.881z" />
    <glyph glyph-name="0009-anchor-close"
      unicode="&#xE009;"
      horiz-adv-x="320" d=" M159.99 320C182.07 320 202.861 315.82 222.324 307.49C241.816 299.14 258.74 287.68 273.105 273.1C287.675 258.7200000000001 299.14 241.811 307.49 222.329C315.8110000000001 202.852 320 182.041 320 159.99C320 137.91 315.82 117.168 307.49 97.793C299.17 78.408 287.695 61.426 273.105 46.855C258.7200000000001 32.47 241.8160000000001 21.074 222.324 12.636C202.852 4.199 182.07 0 159.99 0S117.119 4.209 97.651 12.637C78.178 21.075 61.24 32.491 46.88 46.856C32.3 61.426 20.84 78.409 12.49 97.794C4.189 117.188 0 137.91 0 160.01S4.18 202.881 12.51 222.349C20.84 241.822 32.271 258.741 46.88 273.12C61.26 287.7 78.169 299.16 97.651 307.51C117.148 315.8110000000001 137.91 320 159.99 320zM235.02 103.125L178.75 159.702L235 215.918L214.99 234.683L159.99 179.683L105.01 234.683L84.98 215.918L141.23 159.668L84.98 103.106L104.99 84.659L160.01 139.688L214.99 84.659L235.02 103.105V103.125z" />
    <glyph glyph-name="0010-anchor-home"
      unicode="&#xE00A;"
      horiz-adv-x="320" d=" M160.479 216.372L230.098 156.069V92.343H90.859V155.61L160.479 216.372zM177.91 153.359H142.92V112.187H177.91V153.359zM160.522 253.271L68.71 171.181L82.26 157.602L160.468 226.127L237.734 158.217L251.279 171.801L160.508 253.261L160.522 253.271zM320 160.01C320 248.369 248.369 320 159.99 320C71.65 320 0 248.369 0 160.01S71.65 0 159.99 0C248.379 0 320 71.65 320 160.01zM34.189 160.103C34.189 229.659 90.571 286.011 160.097 286.011C229.658 286.011 286.035 229.629 286.035 160.103C286.035 90.567 229.648 34.19 160.097 34.19C90.571 34.189 34.189 90.566 34.189 160.103z" />
    <glyph glyph-name="0011-anchor-info"
      unicode="&#xE00B;"
      horiz-adv-x="320" d=" M320 160.01C320 248.369 248.369 320 159.99 320C71.65 320 0 248.369 0 160.01S71.65 0 159.99 0C248.379 0 320 71.65 320 160.01zM34.082 160.103C34.082 229.703 90.498 286.1190000000001 160.098 286.1190000000001C229.678 286.1190000000001 286.153 229.703 286.153 160.103C286.153 90.499 229.7080000000001 34.082 160.098 34.082C90.498 34.082 34.082 90.498 34.082 160.103zM149.639 234.692H170.362V213.75H149.639V234.692zM149.839 192.368H170.361V85.312H149.839V192.368z" />
    <glyph glyph-name="0012-anchor-left"
      unicode="&#xE00C;"
      horiz-adv-x="320" d=" M159.999 320C71.61 320 0.009 248.369 0.009 159.99S71.61 0 159.999 0S319.9890000000001 71.602 319.9890000000001 159.99C319.9700000000001 248.379 248.358 320 159.999 320zM159.999 34.102C90.639 34.102 34.198 90.567 34.198 159.952C34.198 229.332 90.648 285.802 159.999 285.802C229.423 285.802 285.8 229.332 285.8 159.952C285.8 90.566 229.423 34.102 159.999 34.102zM139.428 160.41L203.154 96.728L179.013 72.578L103.188 148.369C99.99 151.601 98.159 155.889 98.159 160.459S99.98 169.341 103.188 172.5L178.935 248.398L203.154 224.248L139.428 160.41z" />
    <glyph glyph-name="0013-anchor-questionmark"
      unicode="&#xE00D;"
      horiz-adv-x="320.003" d=" M160.002 319.992C72.008 319.992 0.012 247.996 0.012 160.001C0.012 72.007 72.008 0.012 160.002 0.012C247.997 0.012 319.992 72.007 319.992 160.001C319.992 248.995 247.997 319.992 160.002 319.992zM160.002 34.008C91.007 34.008 34.01 90.005 34.01 160C34.01 229.996 90.007 285.992 160.002 285.992C228.998 285.992 285.9940000000001 229.996 285.9940000000001 160C285.9940000000001 91.005 228.998 34.008 160.002 34.008z M202 206.998C199 215.997 194 223.997 186.001 228.996C176.001 235.996 165.002 238.996 153.003 236.996C151.003 236.996 149.003 235.996 146.003 234.996C139.003 232.996 133.004 228.996 128.004 223.997C123.005 218.997 119.005 212.998 117.005 206.998C116.005 203.998 115.005 200.998 115.005 196.998C115.005 192.999 115.005 189.998 115.005 187.999V184.999H137.004V187.999C137.004 191.998 137.004 193.998 138.004 195.998C138.004 197.998 139.004 198.998 139.004 199.998C140.004 202.998 142.003 205.998 145.004 208.998C148.003 211.997 151.003 212.997 154.003 213.997C155.003 213.997 156.003 214.997 157.003 214.997C163.002 215.997 169.002 213.997 174.001 210.998C178.001 207.998 181.001 203.998 182.001 198.998C183.001 194.998 183.001 190.999 182.001 185.999C181.001 181.999 179.001 178 175.001 175C175.001 175 174.001 175 174.001 174L169.001 170C163.002 166 158.002 161 155.003 156.0009999999999C151.003 150.0009999999999 149.003 144.0009999999999 147.003 137.0019999999999C147.003 136.0019999999999 146.003 133.0019999999999 146.003 130.0019999999999C146.003 128.0029999999999 146.003 126.0029999999999 146.003 123.0029999999999V114.0029999999999H168.002V118.0029999999999C168.002 119.0029999999999 168.002 121.0029999999999 168.002 123.0029999999999S168.002 127.0029999999999 168.002 129.0029999999999C168.002 131.0019999999999 168.002 133.0019999999999 168.002 133.0019999999999C169.002 137.0009999999999 170.002 141.0009999999999 173.001 144.0009999999999C175.001 147.0009999999999 178.001 150.0009999999999 182.001 153.0009999999999L186.001 156.0009999999999C187.001 157 188.001 157 189.0000000000001 158.0009999999999L191.0000000000001 160.0009999999999C197.0000000000001 166 202.0000000000001 173 204.0000000000001 180.9989999999999C205 189.999 205 198.999 202 206.998z M147.0030000000001 98.005C144.0030000000001 95.005 143.0030000000001 92.005 143.0030000000001 88.006C143.0030000000001 84.006 144.0030000000001 81.006 147.0030000000001 78.006S153.0030000000001 74.007 157.0030000000001 74.007C161.0020000000001 74.007 164.0020000000001 75.006 167.0020000000001 78.006C170.0010000000001 81.006 171.0010000000001 84.006 171.0010000000001 88.006C171.0010000000001 92.005 170.0010000000001 95.005 167.0020000000001 98.005C161.002 104.004 152.0030000000001 104.004 147.0030000000001 98.005z" />
    <glyph glyph-name="0014-anchor-right"
      unicode="&#xE00E;"
      horiz-adv-x="320" d=" M159.999 320C71.61 320 0.009 248.35 0.009 159.99S71.61 0 159.999 0S319.9890000000001 71.602 319.9890000000001 159.99S248.358 320 159.999 320zM159.999 34.102C90.619 34.102 34.198 90.567 34.198 159.952C34.198 229.332 90.599 285.802 159.999 285.802C229.403 285.802 285.8 229.352 285.8 159.982C285.8 90.607 229.384 34.113 159.999 34.113V34.102zM218.075 173.013C221.249 169.761 223.075 165.44 223.075 160.879C223.075 156.382 221.249 152.041 218.036 148.818L142.201 73.047L118.051 97.188L181.825 160.933L118.119 224.683L142.308 248.809L218.075 173.022V173.013z" />
    <glyph glyph-name="0015-anchor-top"
      unicode="&#xE00F;"
      horiz-adv-x="320" d=" M159.999 320C71.61 320 0.009 248.369 0.009 159.99S71.61 0 159.999 0S319.9890000000001 71.602 319.9890000000001 159.99C319.9700000000001 248.379 248.358 320 159.999 320zM159.999 34.102C90.619 34.102 34.198 90.567 34.198 159.952C34.198 229.332 90.599 285.8210000000001 159.999 285.8210000000001C229.364 285.8210000000001 285.8 229.351 285.8 159.971C285.8 90.586 229.345 34.102 159.999 34.102zM172.04 210L247.919 134.189L223.73 110.039L160.009 173.74L96.239 109.951L72.05 134.141L147.88 209.971C154.53 216.602 165.419 216.602 172.05 209.991L172.04 210z" />
    <glyph glyph-name="0016-building-airport"
      unicode="&#xE010;"
      horiz-adv-x="320" d=" M109.776 276.353L127.408 283.921H144.508L162.135 276.353V272.4220000000001H173.063V283.75L146.714 295.068H125.205L98.843 283.75V272.4220000000001H109.776V276.353z M246.275 47.246V115.195H161.617L158.257 178.921H171.52L198.219 238.589V267.261H73.726V238.579L100.425 178.911H113.687L105.577 24.932H246.276V36.075H117.106L124.635 178.912H147.315L154.278 47.247H165.211L162.197 104.024H235.347V47.247H246.275L246.275 47.246zM114.268 190.059H107.437L84.634 241.021V256.1190000000001H187.301V241.021L164.488 190.059H114.268z M222.281 47.246V76.816H185.016V65.683H211.344V47.245H222.281z M164.586 218.208L174.703 243.179H99.673V232.061H158.374L152.784 218.208H164.586z" />
    <glyph glyph-name="0017-building-factory"
      unicode="&#xE011;"
      horiz-adv-x="320" d=" M199.347 173.4V205.563L136.773 172.771L136.9 205.793L66.26 166.911V60.295H253.74V71.291H77.262V160.412L125.841 187.17L125.699 154.563L188.36 187.399V153.927L242.725 186.764V82.346H253.721V206.213L199.347 173.4z M90.733 189.953L92.701 248.723H107.93L110.122 200.632L120.859 206.53L118.408 259.704H82.08L79.531 183.781L90.733 189.953z M185.675 82.385H196.661V117.268H134.869V106.282H185.675V82.385z" />
    <glyph glyph-name="0018-character-check"
      unicode="&#xE012;"
      horiz-adv-x="320" d=" M128.124 47.158C122.465 47.158 117.035 49.453 112.924 53.662L39.023 127.51L59.282 147.793L126.933 80.176L256.483 272.842L280.272 256.802L145.761 56.758C142.084 51.328 136.352 47.852 130.063 47.266C129.433 47.207 128.774 47.159 128.144 47.159H128.124z" />
    <glyph glyph-name="0019-character-info"
      unicode="&#xE013;"
      horiz-adv-x="320" d=" M177.129 273.968C177.129 263.87 168.945 255.687 158.852 255.687C148.764 255.687 140.576 263.88 140.576 273.968C140.576 284.0660000000001 148.764 292.249 158.852 292.249C168.945 292.249 177.129 284.065 177.129 273.968z M172.949 54.061V209.5H122.392V183.196H146.635V54.06H116.425V27.751H203.154V54.06H172.949z" />
    <glyph glyph-name="0020-character-questionmark"
      unicode="&#xE014;"
      horiz-adv-x="320" d=" M166.75 98.928H141.466V100.256C141.446 105.1 141.446 113.205 141.925 119.924L141.925 119.924C141.925 119.924 142.438 127.063 143.014 130.529C147.067 151.428 159.435 169.943 176.994 181.691L183.332 186.281C185.197 187.531 187.336 189.084 188.225 189.85C200.276 200.812 204.993 218.043 200.09 233.58C194.582 251.09 178.547 262.862 160.177 262.862C155.924 262.862 151.666 262.193 147.535 260.899C134.913 256.92 124.796 246.851 120.494 234.029C119.727 231.968 117.848 226.148 117.848 213.062H92.584C92.584 221.67 93.307 233.76 96.744 242.603C103.375 262.5 119.635 278.57 139.967 285.01C146.564 287.1 153.365 288.12 160.177 288.12C189.64 288.12 215.363 269.263 224.191 241.147C232.062 216.298 224.543 188.72 205.031 170.981C203.547 169.702 200.402 167.338 197.941 165.649L191.418 160.932C179.035 152.675 170.598 140.009 167.883 125.995C167.512 123.69 167.141 118.29 167.121 118.183C166.711 112.187 166.75 104.765 166.75 100.273V98.928zM154.074 67.004C144.367 67.004 136.515 59.123 136.515 49.455C136.515 39.728 144.386 31.877 154.074 31.877C163.816 31.877 171.711 39.729 171.711 49.455C171.73 59.143 163.825 67.004 154.074 67.004z" />
    <glyph glyph-name="0021-chevron-bottom"
      unicode="&#xE015;"
      horiz-adv-x="320" d=" M160.074 65.128C160.074 65.128 160.074 65.128 159.991 65.128C151.832 65.128 144 68.39 138.17 74.171L1.383 211.085L45.104 254.723L160.074 139.601L275.201 254.605L318.765 210.962L181.891 74.132C175.982 68.39 168.238 65.128 160.074 65.128z" />
    <glyph glyph-name="0022-chevron-left"
      unicode="&#xE016;"
      horiz-adv-x="320" d=" M211.241 1.238L74.22 138.182C68.468 143.934 65.299 151.688 65.299 159.921C65.299 168.085 68.468 175.912 74.259 181.82L211.163 318.612L254.854 275.0130000000001L139.679 159.92L254.806 44.949L211.241 1.238z" />
    <glyph glyph-name="0023-chevron-right"
      unicode="&#xE017;"
      horiz-adv-x="320" d=" M108.795 1.238L65.235 44.793L180.363 159.881L65.397 274.974L108.957 318.612L245.832 181.581C251.613 175.834 254.914 168.08 254.914 159.843C254.914 151.61 251.613 143.856 245.832 138.016L108.795 1.238z" />
    <glyph glyph-name="0024-chevron-top"
      unicode="&#xE018;"
      horiz-adv-x="320" d=" M45.064 65.12L1.382 108.772L138.292 245.716C150.313 257.737 169.84 257.737 181.852 245.716L318.766 108.89L275.202 65.247L160.074 180.257C160.074 180.257 45.06 65.12 45.064 65.12z" />
    <glyph glyph-name="0025-clock-10"
      unicode="&#xE019;"
      horiz-adv-x="320" d=" M159.987 77.105C114.289 77.105 77.096 114.293 77.096 160.005C77.096 205.713 114.288 242.896 159.987 242.896C161.428 242.896 162.809 242.315 163.834 241.294C164.865 240.273 165.436 238.897 165.436 237.4460000000001L165.426 159.995C165.426 158.095 164.455 156.347 162.848 155.367C161.237 154.371 159.235 154.293 157.546 155.137L115.666 176.265L120.568 185.987L154.547 168.848V231.807C117.364 229.004 87.994 197.876 87.994 159.995C87.994 120.288 120.294 87.984 160.006 87.984C199.713 87.984 232.017 120.289 232.017 159.995C232.017 191.313 212.007 218.833 182.232 228.516L185.591 238.868C219.868 227.755 242.905 196.046 242.905 160.006C242.895 114.313 205.708 77.116 160.005 77.116L159.987 77.105z" />
    <glyph glyph-name="0026-clock-12"
      unicode="&#xE01A;"
      horiz-adv-x="320" d=" M185.572 238.876L182.213 228.524C211.988 218.866 231.998 191.322 231.998 160.003C231.998 120.295 199.693 87.991 159.997 87.991C120.285 87.991 87.985 120.296 87.985 160.003C87.985 197.855 117.355 228.992 154.508 231.805V169.536C154.508 166.514 156.954 164.053 159.987 164.053C163.02 164.053 165.465 166.504 165.465 169.536V237.285C165.465 237.324 165.445 237.373 165.445 237.402V237.446C165.445 238.896 164.875 240.263 163.849 241.294C162.818 242.324 161.437 242.896 160.006 242.896C114.298 242.896 77.106 205.713 77.106 160.005C77.106 114.301 114.298 77.104 160.006 77.104C205.718 77.104 242.896 114.301 242.896 160.005C242.886 196.045 219.869 227.734 185.572 238.867V238.876z" />
    <glyph glyph-name="0027-clock-6"
      unicode="&#xE01B;"
      horiz-adv-x="320" d=" M159.986 156.342C156.964 156.342 154.507 153.891 154.507 150.863V112.191H165.445V150.863C165.455 153.91 162.994 156.342 159.976 156.342H159.986z M185.582 238.886L182.203 228.466C211.969 218.813 231.949 191.303 231.949 160.004C231.949 120.336 199.674 88.05 159.995 88.05C120.317 88.05 88.037 120.335 88.037 160.004C88.037 197.836 117.383 228.944 154.536 231.752V169.516C154.536 166.494 156.987 164.052 160.015 164.052C163.037 164.052 165.474 166.503 165.474 169.516V188.256L165.484 237.436C165.484 238.876 164.908 240.263 163.886 241.293C162.857 242.323 161.464 242.904 160.005 242.904C114.287 242.904 77.105 205.712 77.105 160.004C77.105 114.3 114.288 77.093 159.9960000000001 77.093C205.7 77.093 242.897 114.281 242.897 159.994C242.897 196.044 219.86 227.723 185.583 238.876V238.886z" />
    <glyph glyph-name="0028-clock-9"
      unicode="&#xE01C;"
      horiz-adv-x="320" d=" M159.996 77.105C114.288 77.105 77.105 114.293 77.105 160.005C77.105 205.713 114.288 242.896 159.996 242.896C161.426 242.896 162.819 242.325 163.844 241.3040000000001C164.873 240.283 165.436 238.907 165.436 237.456V160.005C165.436 156.998 163.004 154.566 160.006 154.566H112.189V165.445H154.547V231.827C117.374 229.034 87.975 197.887 87.975 160.015C87.975 120.289 120.294 87.984 160.006 87.984C199.723 87.984 232.038 120.289 232.038 160.015C232.038 191.333 212.009 218.877 182.224 228.536L185.583 238.8880000000001C219.86 227.7750000000001 242.897 196.066 242.897 160.016C242.887 114.313 205.719 77.116 160.006 77.116L159.996 77.105z" />
    <glyph glyph-name="0029-communication-at"
      unicode="&#xE01D;"
      horiz-adv-x="320" d=" M174.792 151.218C174.792 147.907 172.106 145.222 168.796 145.222H151.208C147.897 145.222 145.207 147.917 145.207 151.218V168.806C145.207 172.107 147.907 174.797 151.208 174.797H168.796C172.107 174.797 174.792 172.097 174.792 168.806V151.218zM185.69 168.806C185.69 178.127 178.112 185.705 168.795 185.705H151.208C141.877 185.705 134.309 178.127 134.309 168.806V151.218C134.309 141.902 141.877 134.323 151.208 134.323H168.796C171.96 134.323 174.909 135.241 177.448 136.764C180.348 132.291 185.358 129.323 191.081 129.323H196.061C205.026 129.323 212.311 136.608 212.311 145.573V226.994C212.311 236.315 204.733 243.898 195.416 243.898H124.586C115.265 243.898 107.687 236.315 107.687 226.9940000000001V93.034C107.687 83.698 115.265 76.1 124.586 76.1H195.416C204.732 76.1 212.311 83.688 212.311 93.034V125.886C209.215 123.318 205.495 121.472 201.413 120.593V93.034C201.413 89.714 198.718 87.028 195.417 87.028H124.587C121.276 87.028 118.586 89.714 118.586 93.034V226.9940000000001C118.586 230.295 121.286 232.985 124.587 232.985H195.417C198.728 232.985 201.413 230.2850000000001 201.413 226.9940000000001V145.593C201.413 142.624 199.011 140.222 196.061 140.222H191.081C188.132 140.222 185.71 142.624 185.71 145.593L185.69 168.796V168.806z" />
    <glyph glyph-name="0030-communication-desktop"
      unicode="&#xE01E;"
      horiz-adv-x="320" d=" M71.482 234.582C69.275 234.582 67.483 232.79 67.483 230.583V126.057C67.483 123.84 69.275 122.053 71.482 122.053H248.508C250.6960000000001 122.053 252.502 123.84 252.502 126.057L252.492 230.583C252.492 232.78 250.715 234.582 248.488 234.582H71.492H71.482zM248.509 110.92H71.492C63.142 110.92 56.355 117.717 56.355 126.057V230.593C56.355 238.923 63.142 245.72 71.492 245.72H248.509C256.849 245.72 263.626 238.923 263.626 230.593L263.646 126.057C263.626 117.717 256.83 110.92 248.49 110.92H248.509z M77.415 156.711H242.571V145.568H77.415V156.711z M166.712 133.811C166.712 130.1 163.704 127.082 159.983 127.082S153.265 130.1 153.265 133.811S156.273 140.53 159.984 140.53C163.704 140.549 166.712 137.531 166.712 133.811z M119.251 85.422H200.735V74.279H119.251V85.422z M140.921 105.861H152.063V89.826H140.921V105.861z M167.913 105.861H179.056V89.826H167.913V105.861z" />
    <glyph glyph-name="0031-communication-helpdesk"
      unicode="&#xE01F;"
      horiz-adv-x="320" d=" M238.997 200.717H230.638C217.923 228.3 190.579 245.927 159.954 245.927L159.954 245.927L159.954 245.927L159.954 245.927C157.532 245.927 155.164 245.781 152.781 245.5710000000001C152.185 245.498 151.594 245.439 150.994 245.3810000000001C148.953 245.152 146.912 244.839 144.915 244.4290000000001C144.622 244.37 144.334 244.341 144.051 244.2920000000001C120.115 239.351 99.725 223.408 89.261 200.718H80.975C72.684 200.718 65.965 193.989 65.965 185.708V150.42C65.965 142.139 72.684 135.41 80.975 135.41H92.962V146.454H80.975C78.773 146.454 76.986 148.231 76.986 150.429V185.717C76.986 187.919 78.763 189.701 80.975 189.701H85.223C83.221 182.816 82.103 175.59 82.103 168.09H93.153C93.153 177.24 95.013 185.971 98.363 193.91C98.436 194.1 98.514 194.271 98.592 194.447C99.354 196.21 100.194 197.958 101.112 199.637C101.205 199.798 101.273 199.969 101.376 200.12C110.595 216.936 126.845 229.339 146.132 233.426C146.513 233.519 146.884 233.568 147.255 233.646C148.886 233.958 150.512 234.198 152.162 234.398C152.694 234.457 153.212 234.53 153.764 234.579C155.805 234.76 157.866 234.887 159.955 234.887C187.318 234.887 211.635 218.5 221.908 193.139L223.304 189.701H239.017C241.214 189.701 242.992 187.919 242.992 185.717V150.429C242.992 148.232 241.215 146.454 239.017 146.454H234.72C236.693 153.329 237.825 160.56 237.825 168.07H226.79C226.79 138.133 207.005 112.743 179.817 104.257C176.497 111.943 168.86 117.333 159.993 117.333C148.074 117.333 138.382 107.626 138.382 95.712C138.382 83.788 148.074 74.071 159.993 74.071C171.067 74.071 180.11 82.489 181.36 93.231C203.196 99.501 221.106 115.057 230.54 135.37L238.997 135.38C247.278 135.38 254.036 142.099 254.036 150.38V185.688C254.017 193.969 247.278 200.717 238.997 200.717z" />
    <glyph glyph-name="0032-communication-laptop"
      unicode="&#xE020;"
      horiz-adv-x="320" d=" M281.471 86.523L243.805 135.771H96.198V125H238.297L266.295 88.613H54.235L82.697 122.9L82.687 154.609H231.979V145.771H242.74V226.479C242.74 235.122 235.709 242.148 227.076 242.148H87.584C78.946 242.148 71.915 235.122 71.915 226.479L71.925 126.933L38.644 86.66C37.306 85.049 37.038 82.832 37.916 80.937C38.805 79.062 40.704 77.851 42.774 77.851H277.192C279.2530000000001 77.851 281.118 79.003 282.036 80.849C282.945 82.695 282.721 84.883 281.471 86.523L281.471 86.523zM87.575 231.372H227.066C229.771 231.372 231.959 229.17 231.959 226.479V165.38H88.644L82.677 157.289L82.667 226.469C82.667 229.18 84.875 231.372 87.575 231.372z" />
    <glyph glyph-name="0033-communication-phone"
      unicode="&#xE021;"
      horiz-adv-x="320" d=" M217.099 121.018L207.245 138.088C202.899 145.588 193.27 148.166 185.761 143.83L169.394 134.396L174.472 125.607L190.839 135.041C193.515 136.584 196.913 135.666 198.456 133L208.319 115.93C209.862 113.274 208.944 109.866 206.268 108.323L181.63 94.104C178.984 92.561 175.566 93.459 174.003 96.135L111.659 204.104C110.121 206.77 111.049 210.183 113.72 211.721L138.359 225.94C141.02 227.483 144.428 226.56 145.981 223.894L155.722 207.024C157.26 204.353 156.352 200.93 153.681 199.402L137.319 189.944L164.531 142.874L173.32 147.942L151.21 186.252L158.759 190.612C166.269 194.943 168.866 204.582 164.521 212.091L154.658 229.142C150.278 236.51 140.742 239.02 133.281 234.723L108.651 220.5C101.131 216.159 98.539 206.511 102.889 199.011L165.233 91.037C169.569 83.537 179.208 80.93 186.708 85.275L211.347 99.494C218.867 103.84 221.464 113.498 217.118 120.998L217.099 121.018z" />
    <glyph glyph-name="0034-document-doc"
      unicode="&#xE022;"
      horiz-adv-x="320" d=" M210.392 90.723C210.392 87.774 207.99 85.45 205.04 85.45H108.853V229.111C108.853 232.07 111.25 234.477 114.219 234.477H157.661V183.11H222.06L157.662 245.449H114.22C105.241 245.449 97.941 238.081 97.941 229.111V74.55H205.041C214.016 74.55 221.32 81.747 221.32 90.722V170.391H210.401V90.723H210.392zM168.546 219.521L194.269 194.028H168.546V219.521z M116.163 144.004V113.984H126.832C136.27 113.984 142.33 119.619 142.33 129.062C142.33 138.515 136.28 144.023 126.832 144.023H116.163V144.004zM134.723 129.062C134.723 123.32 131.613 120.292 126.53 120.292H123.512V137.715H126.53C131.49 137.715 134.723 134.785 134.723 129.062z M144.591 129.189C144.591 120.38 151.232 113.496 160.289 113.496S175.987 120.381 175.987 129.189C175.987 137.793 169.346 144.511 160.289 144.511S144.591 137.793 144.591 129.189zM168.399 129.189C168.399 124.062 164.791 120.195 160.289 120.195C155.792 120.195 152.184 124.062 152.184 129.189C152.184 134.101 155.802 137.793 160.289 137.793C164.781 137.793 168.399 134.102 168.399 129.189z M194.19 137.812C198.34 137.812 201.71 134.746 201.71 134.746L205.108 140.273C205.108 140.273 201.29 144.521 193.858 144.521C184.835 144.521 178.116 137.812 178.116 129.062C178.116 120.175 184.464 113.496 193.858 113.496C201.71 113.496 205.967 118.535 205.967 118.535L202.178 123.906C202.178 123.906 198.74 120.215 194.199 120.215C188.652 120.215 185.713 124.785 185.713 129.238C185.714 133.555 188.448 137.812 194.19 137.812z" />
    <glyph glyph-name="0035-document-jpg"
      unicode="&#xE023;"
      horiz-adv-x="320" d=" M210.387 90.723C210.387 87.774 207.985 85.45 205.035 85.45H108.859V229.111C108.859 232.07 111.256 234.477 114.215 234.477H157.667V183.11H222.066L157.667 245.449H114.215C105.245 245.449 97.936 238.081 97.936 229.111V74.55H205.045C214.01 74.55 221.315 81.747 221.315 90.722V170.391H210.396V90.723H210.387zM168.541 219.521L194.283 194.028H168.541V219.521z M120.426 125.41V123.222C120.426 116.728 125.406 113.495 130.455 113.495C135.509 113.495 140.538 116.63 140.538 123.222V144.023H125.118V137.734H133.184V123.408C133.184 121.23 132.085 120.215 130.538 120.215C129.708 120.215 128.868 120.527 128.355 121.319C127.974 121.876 127.764 122.715 127.764 123.839V125.43H120.415L120.426 125.41z M145.539 144.004V113.984H152.888V123.261H158.02C163.851 123.261 167.8 127.636 167.8 133.691S163.851 144.003 158.02 144.003H145.548H145.539zM160.319 133.701C160.319 131.308 159.045 129.58 156.496 129.58H152.887V137.734H156.617C159.044 137.715 160.319 136.094 160.319 133.701z M193.229 113.984H199.362V130.957H188.6V124.687H192.858V122.382C192.858 122.382 190.28 120.194 186.784 120.194C182.116 120.194 178.151 123.612 178.151 129.315C178.151 133.758 180.71 137.792 187.028 137.792C191.266 137.792 194.323 135.009 194.323 135.009L197.858 140.507C197.858 140.507 193.991 144.501 186.296 144.501C177.146 144.501 170.554 137.792 170.554 129.042C170.554 119.218 177.605 113.476 185.281 113.476C190.281 113.476 193.172 116.074 193.172 116.074H193.27C193.27 116.074 193.231 115.449 193.231 114.824V113.984L193.229 113.984z" />
    <glyph glyph-name="0036-document-mov"
      unicode="&#xE024;"
      horiz-adv-x="320" d=" M210.399 90.723C210.399 87.774 208.006 85.45 205.047 85.45H108.87V229.111C108.87 232.07 111.267 234.477 114.217 234.477H157.68V183.11H222.06L157.68 245.449H114.218C105.258 245.449 97.939 238.081 97.939 229.111V74.55H205.048C214.013 74.55 221.308 81.747 221.308 90.722V170.391H210.39V90.723H210.399zM168.563 219.521L194.286 194.028H168.563V219.521z M138.5 127.52L139.428 113.985H146.757L144.34 144.004H136.347L131.992 131.318C131.308 129.394 130.459 126.386 130.459 126.386H130.391C130.391 126.386 129.541 129.394 128.882 131.318L124.522 144.004H116.548L114.058 113.984H121.451L122.379 127.519C122.54 129.765 122.379 132.558 122.379 132.558H122.472C122.472 132.558 123.473 129.394 124.132 127.519L127.281 118.818H133.59L136.739 127.519C137.413 129.394 138.419 132.558 138.419 132.558H138.492C138.5 132.559 138.349 129.766 138.5 127.52z M164.447 144.512C155.38 144.512 148.759 137.793 148.759 129.19C148.759 120.381 155.39 113.497 164.447 113.497S180.145 120.382 180.145 129.19C180.146 137.793 173.505 144.512 164.447 144.512zM164.447 120.215C159.969 120.215 156.337 124.082 156.337 129.199C156.337 134.111 159.97 137.812 164.447 137.812C168.934 137.812 172.548 134.111 172.548 129.199C172.548 124.082 168.935 120.215 164.447 120.215z M197.372 113.984L207.968 144.004H200.097L194.716 126.914C194.14 125.029 193.603 122.1 193.603 122.1H193.505C193.505 122.1 192.968 125.03 192.392 126.914L187.099 144.004H179.11L189.735 113.984H197.372z" />
    <glyph glyph-name="0037-document-pdf"
      unicode="&#xE025;"
      horiz-adv-x="320" d=" M199.386 137.754V144.063H180.987V114.024H188.341V125.156H197.491V131.465H188.341V137.754H199.386z M210.382 90.723C210.382 87.774 207.989 85.45 205.03 85.45H108.853V229.111C108.853 232.07 111.25 234.477 114.209 234.477H157.661V183.11H222.07L157.662 245.449H114.21C105.24 245.449 97.931 238.081 97.931 229.111V74.55H205.04C214.015 74.55 221.319 81.747 221.319 90.722V170.391H210.392V90.723H210.382zM168.546 219.521L194.269 194.028H168.546V219.521z M120.47 144.062V114.023H127.824V123.31H132.951C138.781 123.31 142.731 127.675 142.731 133.73C142.731 139.765 138.781 144.062 132.951 144.062H120.47zM135.25 133.74C135.25 131.338 133.98 129.619 131.432 129.619H127.814V137.773H131.549C133.99 137.773 135.25 136.132 135.25 133.75V133.74z M148.38 144.062V114.023H159.029C168.487 114.023 174.551 119.648 174.551 129.101S168.487 144.042 159.029 144.042H148.38V144.062zM166.944 129.111C166.944 123.359 163.829 120.312 158.741 120.312H155.719V137.754H158.741C163.702 137.754 166.944 134.824 166.944 129.111z" />
    <glyph glyph-name="0038-document-ppt"
      unicode="&#xE026;"
      horiz-adv-x="320" d=" M210.399 90.723C210.399 87.774 208.006 85.45 205.047 85.45H108.856V229.111C108.856 232.06 111.258 234.477 114.217 234.477H157.68V183.11H222.06L157.68 245.449H114.218C105.258 245.449 97.939 238.081 97.939 229.111V74.55H205.048C214.013 74.55 221.308 81.747 221.308 90.722V170.391H210.39V90.723H210.399zM168.563 219.521L194.286 194.028H168.563V219.521z M126.767 144.023V114.003H134.101V123.28H139.228C145.058 123.28 149.018 127.655 149.018 133.71S145.058 144.042 139.228 144.042H126.767V144.023zM141.527 133.701C141.527 131.308 140.277 129.59 137.728 129.59H134.1V137.735H137.85C140.277 137.715 141.527 136.094 141.527 133.701z M153.388 144.023V114.003H160.717V123.28H165.839C171.669 123.28 175.595 127.655 175.595 133.71S171.669 144.042 165.839 144.042H153.388V144.023zM168.153 133.701C168.153 131.308 166.883 129.59 164.32 129.59H160.716V137.735H164.466C166.884 137.715 168.153 136.094 168.153 133.701z M192.685 114.004V137.734H201.787V144.023H176.22V137.734H185.322V114.004H192.685z" />
    <glyph glyph-name="0039-document-xls"
      unicode="&#xE027;"
      horiz-adv-x="320" d=" M210.395 90.723C210.395 87.774 208.002 85.45 205.063 85.45H108.853V229.111C108.853 232.07 111.275 234.477 114.234 234.477H157.676V183.11H222.055L157.675 245.449H114.233C105.263 245.449 97.944 238.081 97.944 229.111V74.55H205.053C214.028 74.55 221.313 81.747 221.313 90.722V170.391H210.395V90.723zM168.559 219.521L194.282 194.028H168.559V219.521z M141.962 144.004L138.642 137.842C137.602 135.899 136.796 133.985 136.796 133.985H136.703C136.703 133.985 135.853 135.958 134.843 137.842L131.586 144.004H123.222L132.392 128.906L123.276 113.984H131.425L134.853 120.293C135.903 122.207 136.713 124.023 136.713 124.023H136.806C136.806 124.023 137.602 122.187 138.657 120.293L142.095 113.984H150.274L141.124 128.906L150.313 144.004H141.983H141.962z M153.212 144.004V113.984H172.826V120.293H160.566V144.023L153.212 144.004z M185.668 120.254C181.879 120.254 178.48 123.369 178.48 123.369L174.623 117.793C174.623 117.793 178.519 113.496 185.59 113.496C192.348 113.496 196.166 117.812 196.166 122.832C196.166 132.324 182.641 131.631 182.641 135.42C182.641 137.109 184.321 137.774 185.825 137.774C189.438 137.774 192.466 135.137 192.466 135.137L195.571 141.133C195.571 141.133 192.387 144.531 185.913 144.531C179.946 144.531 175.298 140.879 175.298 135.342C175.298 126.094 188.804 126.231 188.804 122.676C188.803 120.85 187.172 120.254 185.668 120.254z" />
    <glyph glyph-name="0040-document"
      unicode="&#xE028;"
      horiz-adv-x="320" d=" M210.387 90.723C210.387 87.774 207.985 85.459 205.035 85.459H108.849V229.111C108.849 232.07 111.246 234.477 114.215 234.477H157.657V183.11H222.066L157.658 245.449H114.216C105.237 245.449 97.937 238.081 97.937 229.111V74.55H205.035C214.029 74.55 221.314 81.747 221.314 90.702V170.381H210.396L210.386 90.703V90.723zM168.541 219.521L194.264 194.028H168.541V219.521z" />
    <glyph glyph-name="0041-interaction-hand"
      unicode="&#xE029;"
      horiz-adv-x="320" d=" M215.194 188.734C210.116 190.692 179.374 201.893 178.065 202.362L174.276 191.942C174.589 191.815 206.21 180.311 211.19 178.382C218.651 175.511 219.667 173.743 219.667 163.875V122.67L205.194 75.326C204.276 72.553 201.698 70.697 198.778 70.697H154.408C151.908 70.697 149.637 72.054 148.461 74.252L101.078 162.733C99.32 166.004 100.57 170.101 103.837 171.864C105.248 172.616 107.128 172.684 108.998 172.045C110.761 171.454 112.309 170.302 113.031 168.954L125.927 146.459C127.167 144.271 129.731 143.217 132.167 143.852C134.599 144.506 136.288 146.713 136.288 149.223L136.127 242.846C136.127 246.415 139.037 249.325 142.621 249.325C146.2 249.325 149.11 246.415 149.11 242.846V176.933H160.2V242.846C160.2 252.524 152.329 260.414 142.632 260.414C132.93 260.414 125.049 252.523 125.049 242.821L125.181 170.082L122.749 174.335C120.762 178.065 117.041 181.064 112.549 182.563C107.72 184.184 102.769 183.852 98.618 181.625C89.971 176.972 86.689 166.142 91.318 157.485L138.711 68.999C141.821 63.198 147.852 59.585 154.429 59.585H198.799C206.504 59.585 213.311 64.517 215.781 71.948L230.5470000000001 120.21C230.6840000000001 120.718 230.781 121.274 230.781 121.831V163.866C230.771 176.625 228.457 183.593 215.195 188.715V188.734z" />
    <glyph glyph-name="0042-interaction-mouse"
      unicode="&#xE02A;"
      horiz-adv-x="320" d=" M234.004 187.106L187.188 233.957C173.672 247.458 155.708 254.899 136.611 254.899C117.509 254.899 99.55 247.448 86.059 233.957C83.891 231.789 83.891 228.288 86.049 226.135L109.95 202.229C108.309 199.28 107.43 195.94 107.43 192.458C107.43 187.097 109.53 182.028 113.319 178.239L139.149 152.438C142.938 148.639 147.977 146.53 153.358 146.53L153.358 146.53C158.739 146.53 163.788 148.639 167.596 152.438C175.438 160.266 175.438 173.049 167.596 180.876L141.772 206.676L133.94 198.849L159.751 173.039C163.281 169.509 163.291 163.776 159.751 160.246C158.062 158.528 155.772 157.575 153.369 157.6L153.359 157.59C150.952 157.6 148.681 158.537 146.972 160.256L121.161 186.067C117.64 189.597 117.64 195.339 121.161 198.86C123.329 201.018 123.329 204.529 121.161 206.697L97.977 229.876C108.807 238.919 122.347 243.851 136.629 243.851C152.776 243.841 167.947 237.557 179.373 226.136L226.211 179.308C249.785 155.748 249.785 117.398 226.221 93.824C202.676 70.279 164.302 70.279 140.742 93.824L93.901 140.67C76.499 158.078 71.372 183.996 80.84 206.706L70.611 210.988C59.42 184.118 65.45 153.444 86.06 132.867L132.9 86.021C146.84 72.085 165.156 65.103 183.476 65.103C201.777 65.103 220.097 72.076 234.023 86.021C261.914 113.892 261.914 159.259 234.023 187.125L234.004 187.106z" />
    <glyph glyph-name="0043-land-car"
      unicode="&#xE02B;"
      horiz-adv-x="320" d=" M60.045 114.269C60.045 96.769 74.288 82.55 91.788 82.55C108.614 82.55 122.398 95.734 123.404 112.335H189.02V123.331H122.189C118.278 136.436 106.149 146.007 91.798 146.007C74.288 146.007 60.055 131.769 60.055 114.269H60.045zM71.056 114.269C71.056 125.695 80.358 134.992 91.788 134.992C103.214 134.992 112.506 125.695 112.506 114.269C112.506 102.853 103.204 93.566 91.788 93.566C80.367 93.565 71.056 102.853 71.056 114.269z M157.574 212.623H168.57V182.232H201.998V171.231H157.574V212.623z M145.338 171.231H76.627C72.506 171.231 69.796 173.462 71.275 178.751C73.624 187.223 83.736 212.633 83.736 212.633H95.108L83.678 182.242H145.348L145.338 171.231z M37.105 112.315H48.184C47.144 122.784 44.927 152.764 47.456 163.111C56.577 200.391 70.547 226.441 81.435 226.441H157.773C180.952 226.441 201.42 203.379 216.694 183.301C222.495 175.679 234.506 173.672 247.202 171.548C257.358 169.859 270.014 167.749 271.948 162.51C275.005 154.248 273.55 134.405 272.26 123.262H261.967C258.1 136.416 245.932 146.026 231.567 146.026C214.077 146.026 199.838 131.788 199.838 114.288S214.088 82.56 231.568 82.56C248.365 82.56 262.134 95.714 263.179 112.257H281.87L282.554 116.984C283.062 120.558 287.437 152.355 282.281 166.32C278.121 177.55 263.3160000000001 180.021 249 182.413C239.43 184.01 228.609 185.821 225.445 189.962C208.648 212.062 185.767 237.452 157.764 237.452H81.426C56.924 237.452 42.027 187.281 36.753 165.719C33.325 151.681 36.694 116.378 37.095 112.335L37.105 112.315zM252.281 114.269C252.281 102.853 242.984 93.566 231.558 93.566C220.152 93.566 210.845 102.853 210.845 114.269C210.845 125.695 220.152 134.992 231.558 134.992C242.984 134.991 252.281 125.714 252.281 114.269z" />
    <glyph glyph-name="0044-land-lorry-plus"
      unicode="&#xE02C;"
      horiz-adv-x="623.622" d=" M522.3969999999999 224.224V213.194C553.9590000000001 213.194 588.627 179.014 596.626 155.977C599.5360000000001 147.583 598.169 127.73 596.958 116.578H585.942C582.036 129.683 569.8779999999999 139.293 555.512 139.293C538.012 139.293 523.7539999999999 125.035 523.7539999999999 107.516S537.992 75.748 555.512 75.748C572.367 75.748 586.1569999999999 88.961 587.172 105.543H606.645L607.28 110.309C607.759 113.883 611.8699999999999 145.563 607.036 159.557C598.1099999999999 185.304 559.819 224.215 522.3969999999999 224.215V224.224zM576.2539999999999 107.524C576.2539999999999 96.069 566.9569999999999 86.772 555.512 86.772C544.057 86.772 534.76 96.069 534.76 107.524C534.76 118.96 544.057 128.266 555.512 128.266C566.957 128.267 576.2539999999999 118.96 576.2539999999999 107.524z M533.403 163.945H570.21V152.934H522.3979999999999V201.054H533.404V163.945z M292.26 116.587H273.808V105.562H303.281V233.232H500.21V116.597H379.243C375.336 129.722 363.188 139.312 348.832 139.312C331.312 139.312 317.055 125.054 317.055 107.535S331.313 75.767 348.832 75.767C365.668 75.767 379.467 88.98 380.492 105.562H511.234V244.258H292.26V116.597V116.587zM369.575 107.524C369.575 96.069 360.259 86.772 348.833 86.772C337.397 86.772 328.071 96.069 328.071 107.524C328.071 118.96 337.387 128.266 348.833 128.266C360.268 128.267 369.575 118.96 369.575 107.524z M15.258 244.243V105.62H26.279V233.232H253.251V116.597H239.081C235.18 129.722 223.017 139.312 208.657 139.312C191.137 139.312 176.889 125.054 176.889 107.535S191.137 75.767 208.657 75.767C225.498 75.767 239.302 88.98 240.317 105.562H264.257V244.258H15.258V244.243zM229.399 107.524C229.399 96.069 220.087 86.772 208.657 86.772C197.231 86.772 187.9 96.069 187.9 107.524C187.9 118.96 197.221 128.266 208.657 128.266C220.097 128.267 229.399 118.96 229.399 107.524z M40.048 108.364C40.048 90.844 54.311 76.596 71.83 76.596C88.397 76.596 102.02 89.35 103.436 105.561H165.838V116.577H102.469C98.836 130.112 86.497 140.132 71.829 140.132C54.319 140.152 40.057 125.874 40.057 108.364H40.048zM51.079 108.364C51.079 119.8 60.391 129.116 71.831 129.116S92.578 119.8 92.578 108.364S83.261 87.612 71.831 87.612S51.079 96.929 51.079 108.364z" />
    <glyph glyph-name="0045-land-lorry"
      unicode="&#xE02D;"
      horiz-adv-x="560.006" d=" M402.183 212.944H422.007C453.423 212.944 487.935 178.925 495.884 155.976C498.775 147.631 497.417 127.866 496.206 116.772H487.319C483.423 129.819 471.342 139.389 457.026 139.389C439.6040000000001 139.389 425.424 125.209 425.424 107.768S439.6040000000001 76.147 457.026 76.147C473.794 76.147 487.524 89.292 488.53 105.815H505.844L506.479 110.561C506.967 114.106 511.069 145.62 506.225 159.575C497.377 185.205 459.252 223.926 422.006 223.926H391.225V148.042H380.034V137.065H402.182V212.954V212.944zM477.681 107.769C477.681 96.382 468.413 87.115 457.027 87.115C445.66 87.115 436.382 96.383 436.382 107.769C436.382 119.146 445.659 128.404 457.027 128.404C468.423 128.413 477.681 119.146 477.681 107.769z M433.843 163.926H470.474V152.954H422.886V200.854H433.843V163.926z M152.075 107.769C152.075 90.328 166.245 76.148 183.681 76.148C200.453 76.148 214.174 89.293 215.195 105.816H314.712V116.792H213.975C210.093 129.839 198.003 139.39 183.691 139.39C166.255 139.39 152.075 125.21 152.075 107.769zM163.023 107.769C163.023 119.156 172.295 128.404 183.672 128.404C195.054 128.404 204.321 119.136 204.321 107.769C204.321 96.382 195.053 87.115 183.672 87.115C172.295 87.114 163.023 96.382 163.023 107.769z M379.976 243.848V159.375H369.019V232.886H63.403V105.874H52.441V243.857L379.976 243.848z M77.124 107.769C77.124 90.328 91.294 76.148 108.73 76.148C126.171 76.148 140.341 90.328 140.341 107.769S126.161 139.39 108.73 139.39C91.304 139.39 77.124 125.21 77.124 107.769zM88.081 107.769C88.081 119.156 97.353 128.404 108.73 128.404C120.112 128.404 129.375 119.136 129.375 107.769C129.375 96.382 120.103 87.115 108.73 87.115C97.363 87.114 88.081 96.382 88.081 107.769z M325.991 107.769C325.991 90.328 340.18 76.148 357.612 76.148C374.37 76.148 388.1 89.293 389.116 105.816H414.653V116.792H387.885C383.998 129.839 371.908 139.39 357.602 139.39C340.18 139.39 325.981 125.21 325.981 107.769H325.991zM336.948 107.769C336.948 119.156 346.225 128.404 357.612 128.404S378.257 119.136 378.257 107.769C378.257 96.382 368.98 87.115 357.612 87.115C346.206 87.114 336.948 96.382 336.948 107.769z" />
    <glyph glyph-name="0046-land-motor"
      unicode="&#xE02E;"
      horiz-adv-x="320" d=" M235.291 171.238C212.83 171.238 194.539 152.957 194.539 130.486C194.539 108.025 212.83 89.744 235.291 89.744S276.033 108.025 276.033 130.486C276.033 152.957 257.752 171.238 235.291 171.238zM235.291 100.838C218.943 100.838 205.643 114.149 205.643 130.486C205.643 140.808 210.975 149.9 218.983 155.227L231.463 128.904L231.541 128.943C232.4100000000001 127.136 234.236 125.867 236.365 125.867C239.334 125.867 241.746 128.289 241.746 131.258C241.746 132.186 241.443 133.045 241.014 133.787L228.866 159.417C230.936 159.876 233.085 160.149 235.272 160.149C251.629 160.149 264.92 146.834 264.92 130.496S251.609 100.848 235.272 100.848L235.291 100.838z M235.887 183.958H241.444V189.51C241.444 211.976 223.163 230.257 200.682 230.257V219.149C215.233 219.149 227.362 208.627 229.862 194.789C198.904 191.897 174.207 167.059 171.561 136.033H168.495L125.916 176.937H169.471V182.489C169.471 190.897 176.297 197.728 184.725 197.728H200.116V208.836H184.725C172.098 208.836 161.517 199.91 158.958 188.05H110.35C101.361 192.64 91.38 195.047 81.097 195.047H64.818V183.939H81.097C94.657 183.939 107.611 178.836 117.537 169.598L164.046 124.9H182.449V130.476C182.42 159.959 206.404 183.948 235.896 183.948L235.887 183.958z M125.027 136.033C122.308 155.877 105.286 171.229 84.71 171.229C62.249 171.229 43.968 152.948 43.968 130.477S62.249 89.745 84.71 89.745C105.286 89.745 122.308 105.077 125.027 124.931H146.937L136.15 136.033H125.027zM84.71 100.838C68.357 100.838 55.066 114.149 55.066 130.486C55.066 146.834 68.357 160.13 84.71 160.13C90.877 160.13 96.609 158.216 101.36 154.988L80.77 134.393C79.178 132.811 78.719 130.418 79.579 128.338S82.46 124.9 84.711 124.9H113.808C111.21 111.238 99.15 100.828 84.711 100.828V100.838zM98.108 136.033L109.216 147.137C111.457 143.846 113.049 140.086 113.806 136.033H98.108z" />
    <glyph glyph-name="0047-land-pickup"
      unicode="&#xE02F;"
      horiz-adv-x="320" d=" M35.521 169.646V117.566H46.459V159.846H175.438V219.226H194.667C226.513 219.226 264.267 181.848 271.806 162.375C274.677 154.919 273.329 137.253 272.118 127.312H261.18C257.293 138.992 245.203 147.527 230.916 147.527C213.504 147.527 199.344 134.851 199.344 119.256C199.344 103.68 213.504 90.985 230.916 90.985C247.664 90.985 261.375 102.723 262.391 117.508H281.756L282.41 121.756C282.879 124.93 286.98 153.094 282.146 165.569C273.718 187.366 233.093 229.016 194.695 229.016H164.511V169.636L35.521 169.646zM251.532 119.255C251.532 109.069 242.274 100.788 230.907 100.788C219.52 100.788 210.302 109.069 210.302 119.255S219.54 137.722 230.907 137.722S251.532 129.44 251.532 119.255z M60.17 119.255C60.17 103.689 74.34 90.984 91.762 90.984C108.51 90.984 122.211 102.742 123.232 117.507H188.564V127.292H122.011C118.119 138.972 106.049 147.507 91.772 147.507C74.34 147.507 60.17 134.831 60.17 119.245V119.255zM71.127 119.255C71.127 129.441 80.38 137.722 91.772 137.722C103.129 137.722 112.392 129.441 112.392 119.255S103.129 100.788 91.772 100.788C80.38 100.788 71.127 109.069 71.127 119.255z M206.513 169.465H246.415V159.655H195.556V206.857H206.513V169.465z" />
    <glyph glyph-name="0048-land-truck"
      unicode="&#xE030;"
      horiz-adv-x="320" d=" M212.781 223.693V212.76C244.08 212.76 278.4650000000001 178.873 286.394 156.012C289.265 147.697 287.9170000000001 128.009 286.706 116.954H275.798C271.9210000000001 129.962 259.87 139.493 245.612 139.493C228.249 139.493 214.128 125.352 214.128 107.97C214.128 90.607 228.249 76.466 245.612 76.466C262.331 76.466 276.0030000000001 89.562 277.0180000000001 106.017H296.3250000000001L296.9790000000001 110.744C297.448 114.279 301.53 145.666 296.725 159.572C287.8580000000001 185.114 249.889 223.703 212.78 223.703V223.693zM266.189 107.961C266.189 96.613 256.941 87.385 245.593 87.385S225.027 96.614 225.027 107.961C225.027 119.318 234.246 128.557 245.593 128.557C256.9410000000001 128.537 266.189 119.299 266.189 107.961z M223.689 163.913H260.183V153H212.762V200.72H223.69V163.913z M20.959 243.552V106.057H31.867V232.624H190.77V116.936H107.21C103.328 129.944 91.287 139.456 77.039 139.456C59.666 139.456 45.54 125.345 45.54 107.942C45.54 90.588 59.656 76.448 77.039 76.448C93.758 76.448 107.43 89.534 108.44 105.999H201.678V243.552H20.959zM97.62 107.961C97.62 96.613 88.387 87.385 77.039 87.385C65.686 87.385 56.448 96.614 56.448 107.961C56.448 119.318 65.686 128.557 77.039 128.557C88.386 128.557 97.62 119.299 97.62 107.961z" />
    <glyph glyph-name="0049-land-van"
      unicode="&#xE031;"
      horiz-adv-x="320" d=" M35.691 237.027V112.633H46.624V226.094H194.631C226.418 226.094 264.113 184.356 271.633 162.627C274.524 154.293 273.156 134.585 271.965 123.511H261.027C257.141 136.52 245.08 146.07 230.812 146.07C213.449 146.07 199.269 131.929 199.269 114.517C199.269 97.124 213.419 82.964 230.812 82.964C247.55 82.964 261.242 96.089 262.257 112.564H281.583L282.237 117.32C282.706 120.826 286.807 152.281 281.983 166.206C273.545 190.527 232.979 237.026 194.639 237.026L35.689 237.036V237.027zM251.398 114.518C251.398 103.161 242.179 93.922 230.812 93.922S210.227 103.18 210.227 114.518C210.227 125.885 219.465 135.133 230.813 135.133S251.398 125.885 251.398 114.518z M60.315 114.518C60.315 97.135 74.461 82.975 91.853 82.975C108.591 82.975 122.292 96.11 123.303 112.584H188.527V123.512H122.063C118.181 136.52 106.13 146.07 91.853 146.07C74.47 146.07 60.315 131.929 60.315 114.527V114.518zM71.243 114.518C71.243 125.885 80.501 135.133 91.844 135.133C103.201 135.133 112.445 125.875 112.445 114.518S103.202 93.922 91.844 93.922C80.491 93.922 71.243 103.16 71.243 114.518z M206.457 170.547H246.301V159.605H195.52V212.295H206.458V170.547z" />
    <glyph glyph-name="0050-packaging-box"
      unicode="&#xE032;"
      horiz-adv-x="320" d=" M104.682 112.537L59.584 156.81L51.693 148.768L96.796 104.481C88.046 91.766 89.384 74.159 100.785 62.967C113.573 50.428 134.164 50.613 146.703 63.387S159.061 96.766 146.273 109.305C134.872 120.496 117.254 121.532 104.681 112.528V112.537zM138.676 71.277C130.483 62.927 117.026 62.8 108.666 71.004C100.326 79.188 100.204 92.645 108.383 100.984C116.586 109.343 130.033 109.461 138.373 101.267C146.732 93.074 146.854 79.617 138.666 71.277H138.676z M268.207 210.389L237.348 210.11L148.686 119.793L156.723 111.902L242.123 198.889L268.305 199.138L268.207 210.389z M142.417 166.38L129.355 179.197C125.976 179.905 122.915 177.976 121.323 176.707L119.956 175.306L138.916 156.698L139.873 157.679C141.113 159.188 143.457 162.649 142.417 166.38z M116.635 132.859L89.233 159.749L123.266 194.417L157.934 160.389L133.105 135.077L141.142 127.196L173.852 160.54L123.115 210.325L73.305 159.588L108.735 124.813L116.635 132.859z M197.387 222.366L184.34 235.188C180.961 235.896 177.875 233.977 176.293 232.698L174.926 231.297L193.891 212.689L194.848 213.656C196.098 215.17 198.412 218.636 197.387 222.357V222.366z M228.832 216.507L178.109 266.317L128.276 215.58L179.008 165.77L228.832 216.507zM144.204 215.726L178.227 250.399L212.904 216.37L178.871 181.697L144.204 215.726z" />
    <glyph glyph-name="0051-packaging-envelope"
      unicode="&#xE033;"
      horiz-adv-x="320" d=" M246.511 197.1V114.004L192.019 155.112L183.093 148.222L239.978 105.351H81.877L136.945 147.851L128.005 154.58L73.488 112.578V150.527L73.478 195.688L62.658 203.95V94.521H257.35V205.371L246.511 197.1z M160.017 154.375H160.007H159.997L81.887 214.639H238.132L160.017 154.375zM248.435 225.479H71.565C68.709 225.191 62.649 223.628 62.649 215.708L73.489 207.432L159.998 140.772L257.352 215.709C257.332 223.629 251.288 225.191 248.426 225.48H248.435z" />
    <glyph glyph-name="0052-packaging-pallet"
      unicode="&#xE034;"
      horiz-adv-x="320" d=" M124.258 141.84C124.029 144.662 122.92 150.531 118.14 153.285H91.958C87.788 150.629 86.582 145.59 86.24 142.699V139.887H124.258V141.84z M153.54 176.264H56.938V92.211H153.54V176.264zM142.588 103.168H67.891V165.312H142.588V103.168z M233.76 141.84C233.5350000000001 144.662 232.432 150.531 227.637 153.285H201.445C197.285 150.629 196.074 145.59 195.722 142.699V139.887H233.75V141.84H233.76z M263.0470000000001 176.264H166.445V92.211H263.0470000000001V176.264zM252.1 103.168H177.402V165.312H252.1V103.168z M124.258 237.236C124.029 240.024 122.92 245.903 118.14 248.667H91.958C87.788 246.016 86.582 240.977 86.24 238.066V235.273H124.258V237.236z M153.54 271.635H56.938V185.864H153.54V271.635zM142.588 196.816H67.891V260.673H142.588V196.816z M233.76 237.236C233.5350000000001 240.024 232.432 245.903 227.637 248.667H201.445C197.285 246.016 196.074 240.977 195.722 238.066V235.273H233.75V237.236H233.76z M263.0470000000001 271.635H166.445V185.864H263.0470000000001V271.635zM252.1 196.816H177.402V260.673H252.1V196.816z M46.699 80.824V48.519H247.324V59.476H165.479V69.867H262.344V48.363H273.301V80.834L46.699 80.824L46.699 80.824zM154.521 59.477H57.661V69.887H154.521V59.477z" />
    <glyph glyph-name="0053-people-men"
      unicode="&#xE035;"
      horiz-adv-x="320" d=" M159.993 208.933C138.782 208.933 121.531 191.682 121.531 170.491V126.995H132.454V170.49C132.454 185.671 144.812 198.024 160.003 198.024C175.189 198.024 187.552 185.67 187.552 170.49V126.994H198.47V170.49C198.47 191.681 181.224 208.932 160.013 208.932H159.993z M143.182 126.975H154.105V42.62H143.182V126.975z M165.892 126.975H176.81V42.62H165.892V126.975z M159.993 219.191C176.048 219.191 189.104 232.233 189.104 248.273C189.104 264.333 176.047 277.379 159.993 277.379C143.943 277.379 130.891 264.322 130.891 248.273C130.892 232.233 143.953 219.191 159.993 219.191zM159.993 266.472C170.022 266.472 178.177 258.313 178.177 248.274C178.177 238.264 170.023 230.105 159.993 230.105C149.973 230.105 141.814 238.254 141.814 248.274S149.974 266.472 159.993 266.472z" />
    <glyph glyph-name="0054-people-women"
      unicode="&#xE036;"
      horiz-adv-x="320" d=" M144.408 107.189H155.331V42.619H144.408V107.189z M164.647 107.189H175.575V42.619H164.647V107.189z M159.989 219.191C176.024 219.191 189.1 232.233 189.1 248.273C189.1 264.333 176.024 277.379 159.989 277.379C143.929 277.379 130.887 264.322 130.887 248.273C130.888 232.233 143.93 219.191 159.989 219.191zM159.989 266.472C170.018 266.472 178.192 258.313 178.192 248.274C178.192 238.264 170.028 230.105 159.989 230.105S141.811 238.254 141.811 248.273C141.811 258.303 149.97 266.472 159.989 266.472z M196.454 120.275C194.442 121.974 193.231 124.357 193.016 126.955C192.977 127.404 192.87 130.051 192.87 130.051L190.839 177.194C190.839 177.194 190.741 179.801 190.693 180.441C189.54 196.413 176.044 208.942 159.999 208.942C143.998 208.942 130.829 196.95 129.34 181.081C129.272 180.222 129.15 177.331 129.15 177.321L127.109 129.904C127.109 129.904 126.982 127.384 126.958 126.916C126.748 124.338 125.542 121.975 123.53 120.275C122.509 119.416 121.362 118.781 120.102 118.39L123.31 107.941C126.01 108.771 128.471 110.119 130.6 111.935C134.819 115.529 137.392 120.509 137.851 126.017C137.88 126.466 138.032 129.357 138.032 129.396L140.068 176.881C140.068 176.881 140.161 179.303 140.219 180.03C141.181 190.279 149.657 198.013 159.999 198.013C170.36 198.013 179.071 189.922 179.813 179.61C179.852 179.058 179.93 176.802 179.93 176.749L181.961 129.552C181.961 129.552 182.107 126.544 182.137 126.134C182.567 120.587 185.164 115.568 189.383 111.954C191.531 110.138 193.992 108.79 196.688 107.95L199.901 118.4C198.622 118.781 197.46 119.416 196.434 120.275H196.454z" />
    <glyph glyph-name="0055-sea-ship"
      unicode="&#xE037;"
      horiz-adv-x="440.004" d=" M87.439 88.867C80.662 95.117 76.262 103.691 74.5 113.594L60.779 194.282H88.108V220.932H159.368V205.078H111.311V194.272H159.368V177.978H170.159V231.718H77.302V205.077H47.981L63.85 111.718C65.339 103.3 68.821 95.253 73.459 88.593C79.26 86.562 87.429 88.866 87.429 88.866H87.439z M241.453 195.19H383.25V205.981H230.643V177.978H241.454V195.19z M346.863 183.491L343.1720000000001 166.211H83.689V155.4H351.9020000000001L355.593 172.68H419.4890000000001L408.874 113.613C406.101 98.144 398.5220000000001 77.558 364.7720000000001 77.558C336.6570000000001 77.558 334.6550000000001 103.369 334.5180000000001 106.279L323.707 106.054C323.707 87.001 313.5700000000001 77.343 293.6 77.343C274.567 77.343 262.7700000000001 88.339 262.7700000000001 106.054H251.99C251.99 87.001 241.824 77.343 221.838 77.343C202.83 77.343 191.008 88.339 191.008 106.054H180.197C180.197 87.001 170.07 77.343 150.09 77.343C131.062 77.343 119.26 88.339 119.26 106.054H108.469C108.469 87.001 98.327 77.343 78.352 77.343C59.338 77.343 47.522 88.339 47.522 106.054H36.721C36.721 87.001 26.579 77.343 6.589 77.343V66.523C23.82 66.523 36.15 72.89 42.531 84.472C49.46 73.281 62.15 66.523 78.342 66.523C95.5780000000001 66.523 107.907 72.89 114.2890000000001 84.472C121.2180000000001 73.281 133.8980000000001 66.523 150.09 66.523C167.3310000000001 66.523 179.6410000000001 72.89 186.018 84.472C192.9520000000001 73.281 205.662 66.523 221.8380000000001 66.523C239.0900000000001 66.523 251.4140000000001 72.89 257.7910000000001 84.472C264.7150000000001 73.281 277.4300000000001 66.523 293.5920000000001 66.523C311.2290000000001 66.523 323.7580000000001 73.144 330.0080000000001 85.214C335.9260000000001 75.36 346.649 66.776 364.754 66.776C395.7600000000001 66.776 414.1680000000001 81.874 419.5100000000001 111.678L432.4200000000001 183.47H346.8930000000001L346.863 183.491z M111.272 253.481H132.332V242.69H111.272V253.481z" />
    <glyph glyph-name="0056-social-android"
      unicode="&#xE038;"
      horiz-adv-x="320.003" d=" M98.295 190.116C92.484 190.116 87.763 185.394 87.763 179.584L87.773 135.473C87.773 129.643 92.485 124.946 98.305 124.946S108.832 129.643 108.832 135.473V179.594C108.823 185.395 104.126 190.116 98.295 190.116zM183.236 229.735L190.58 243.163C190.971 243.876 190.717 244.774 190.014 245.175C189.291 245.546 188.403 245.282 188.022 244.574L180.6 231.014C167.553 236.815 152.275 236.766 139.374 231.024L131.923 244.554C131.532 245.262 130.653 245.535 129.945 245.135C129.242 244.754 128.973 243.865 129.383 243.172L136.732 229.744C122.284 222.303 112.895 208.103 112.904 191.814L207.073 191.824C207.083 208.113 197.649 222.283 183.216 229.744L183.236 229.735zM138.393 208.993C136.215 208.993 134.414 210.775 134.414 212.972C134.414 215.155 136.186 216.961 138.393 216.961C140.605 216.961 142.372 215.164 142.372 212.972C142.362 210.775 140.575 208.993 138.383 208.993H138.393zM181.576 208.993C179.388 208.993 177.592 210.775 177.592 212.972C177.592 215.164 179.369 216.961 181.576 216.971C183.754 216.971 185.56 215.174 185.56 212.972C185.561 210.775 183.793 208.993 181.576 208.993zM112.915 188.134L112.925 119.78C112.925 113.569 117.954 108.55 124.165 108.55H131.836V85.191C131.826 79.39 136.567 74.664 142.354 74.664C148.174 74.664 152.876 79.41 152.876 85.211V108.531H167.095V85.211C167.095 79.391 171.831 74.664 177.632 74.684C183.452 74.684 188.179 79.391 188.179 85.231V108.551H195.855C202.046 108.551 207.095 113.571 207.095 119.801L207.085 188.146L112.915 188.134zM232.221 179.604C232.221 185.424 227.504 190.136 221.674 190.136C215.854 190.146 211.156 185.424 211.156 179.604V135.502C211.156 129.682 215.863 124.975 221.693 124.975C227.513 124.975 232.24 129.682 232.24 135.502L232.221 179.604L232.221 179.604z" />
    <glyph glyph-name="0057-social-facebook"
      unicode="&#xE039;"
      horiz-adv-x="320" d=" M138.47 189.545H120.609V160.365H138.49V74.661H172.86V160.731H196.835L199.374 189.544H172.859V205.965C172.859 212.752 174.216 215.443 180.789 215.443H199.393V245.336H175.604C150.008 245.336 138.47 234.072 138.47 212.514C138.48 193.735 138.48 189.535 138.48 189.535L138.47 189.545z" />
    <glyph glyph-name="0058-social-flickr"
      unicode="&#xE03A;"
      horiz-adv-x="320" d=" M200.234 205.088C182.656 205.088 167.431 195.029 159.99 180.352C152.559 195.02 137.319 205.088 119.761 205.088C94.859 205.088 74.668 184.912 74.668 159.99S94.858 114.912 119.761 114.912C137.339 114.912 152.559 124.961 160 139.648C167.432 124.98 182.656 114.912 200.234 114.912C225.136 114.912 245.332 135.098 245.332 159.99C245.332 184.878 225.137 205.088 200.234 205.088zM200.234 126.934C182.002 126.934 167.168 141.778 167.168 160C167.168 178.218 182.002 193.071 200.234 193.071C218.476 193.071 233.3 178.227 233.3 160C233.301 141.777 218.457 126.934 200.234 126.934z" />
    <glyph glyph-name="0059-social-google"
      unicode="&#xE03B;"
      horiz-adv-x="320" d=" M82.337 202.771C82.337 188.284 87.176 177.825 96.707 171.682C104.51 166.643 113.577 165.901 118.279 165.901C119.417 165.901 120.34 165.955 120.979 165.994C120.979 165.994 119.48 156.263 126.697 146.634H126.38C113.88 146.634 73.109 144.027 73.109 110.511C73.109 76.409 110.56 74.671 118.06 74.671C118.651 74.671 118.998 74.691 118.998 74.691C119.081 74.691 119.618 74.671 120.531 74.671C125.35 74.671 137.821 75.276 149.379 80.892C164.399 88.187 172.021 100.863 172.021 118.558C172.021 135.667 160.41 145.863 151.948 153.314C146.8 157.854 142.327 161.765 142.327 165.583C142.327 169.46 145.589 172.37 149.71 176.081C156.39 182.062 162.679 190.573 162.679 206.643C162.679 220.784 160.848 230.261 149.559 236.282C150.731 236.883 154.886 237.322 156.956 237.615C163.069 238.435 172.029 239.392 172.029 244.383V245.335H127.439C127.009 245.325 82.356 243.675 82.356 202.791L82.337 202.771zM154.31 115.363C155.16 101.72 143.49 91.662 125.98 90.383C108.197 89.084 93.548 97.092 92.689 110.705C92.269 117.248 95.16 123.674 100.79 128.771C106.508 133.947 114.35 137.14 122.89 137.775C123.891 137.853 124.887 137.882 125.898 137.882C142.356 137.893 153.509 128.205 154.31 115.363zM142.669 212.102C147.049 196.721 140.438 180.632 129.91 177.663C128.689 177.311 127.439 177.141 126.18 177.141C116.536 177.141 106.991 186.902 103.441 200.334C101.478 207.883 101.629 214.494 103.9 220.842C106.127 227.082 110.13 231.301 115.179 232.722C116.39 233.083 117.65 233.235 118.909 233.235C130.559 233.245 138.04 228.401 142.679 212.102H142.669zM217.811 178.581V207.673H199.373V178.571H170.291V160.153H199.373V131.056H217.811V160.153H246.893V178.571L217.811 178.581z" />
    <glyph glyph-name="0060-social-ios"
      unicode="&#xE03C;"
      horiz-adv-x="320" d=" M229.486 120.121C223.9 103.91 208.793 75.219 191.556 74.887C180.111 74.662 176.439 81.655 163.353 81.655C150.291 81.655 146.214 75.093 135.403 74.673C117.122 73.989 90.51 116.118 90.51 152.866C90.51 186.616 112.414 203.364 132.971 203.667C143.982 203.857 154.402 196.235 161.12 196.235C167.874 196.235 180.511 205.415 193.802 204.062C199.368 203.823 214.984 201.826 225.013 187.163C198.402 169.784 200.932 133.48 229.486 120.121L229.486 120.121zM193.979 245.336C173.881 244.535 157.484 223.446 159.774 206.005C178.354 204.564 196.186 225.375 193.979 245.336z" />
    <glyph glyph-name="0061-social-linkedin"
      unicode="&#xE03D;"
      horiz-adv-x="320" d=" M115.771 222.556C115.839 217.165 113.969 212.639 110.161 209.006C106.362 205.368 101.328 203.557 95.112 203.557H94.878C88.809 203.557 83.911 205.369 80.22 209.006C76.529 212.649 74.668 217.165 74.668 222.556C74.668 228.039 76.572 232.576 80.391 236.179C84.209 239.758 89.17 241.575 95.332 241.575C101.47 241.575 106.421 239.768 110.112 236.179C113.809 232.575 115.698 228.049 115.771 222.556zM113.442 188.557V78.444H76.782V188.557H113.442zM245.332 141.569V78.444H208.77V137.331C208.77 145.124 207.266 151.198 204.258 155.607C201.27 159.997 196.582 162.218 190.196 162.218C185.548 162.218 181.641 160.939 178.497 158.365C175.343 155.816 172.989 152.662 171.446 148.873C170.626 146.656 170.216 143.668 170.216 139.869V78.424H133.639C133.8 107.955 133.873 131.94 133.873 150.319C133.873 168.669 133.829 179.645 133.761 183.195L133.619 188.527H170.196V172.517H169.971C171.446 174.905 172.969 176.975 174.541 178.738C176.094 180.52 178.184 182.439 180.811 184.539C183.428 186.6 186.661 188.216 190.479 189.349C194.297 190.506 198.536 191.078 203.204 191.078C215.85 191.078 226.036 186.879 233.741 178.48C241.466 170.077 245.323 157.757 245.323 141.551L245.332 141.569z" />
    <glyph glyph-name="0062-social-twitter"
      unicode="&#xE03E;"
      horiz-adv-x="320" d=" M245.328 212.923C239.039 210.135 232.301 208.255 225.23 207.405C232.457 211.731 237.994 218.592 240.621 226.775C233.863 222.761 226.363 219.832 218.375 218.274C211.988 225.105 202.887 229.343 192.818 229.343C170.23 229.343 153.594 208.244 158.716 186.355C129.605 187.81 103.814 201.755 86.553 222.942C77.383 207.205 81.807 186.624 97.398 176.194C91.646 176.375 86.255 177.942 81.524 180.584C81.148 164.354 92.764 149.183 109.605 145.804C104.688 144.466 99.278 144.154 93.794 145.208C98.257 131.292 111.177 121.165 126.514 120.882C111.788 109.349 93.248 104.183 74.664 106.38C90.167 96.439 108.565 90.657 128.336 90.657C193.356 90.657 230.075 145.559 227.868 194.803C234.704 199.735 240.622 205.892 245.339 212.923H245.328z" />
    <glyph glyph-name="0063-social-youtube"
      unicode="&#xE03F;"
      horiz-adv-x="320.003" d=" M107.752 245.338H117.991L125.003 219.005L131.522 245.338H141.854L130.023 206.188V179.464H119.852V206.188L107.752 245.338zM141.404 191.588C141.404 183.038 145.882 178.566 154.632 178.566C161.903 178.566 167.62 183.424 167.62 191.588V215.416C167.62 223.019 161.951 228.468 154.632 228.468C146.683 228.468 141.404 223.214 141.404 215.416V191.588zM150.711 214.616C150.711 217.267 151.932 219.245 154.461 219.245C157.234 219.245 158.421 217.336 158.421 214.616V192.018C158.421 189.376 157.083 187.428 154.651 187.428C152.151 187.428 150.711 189.454 150.711 192.018V214.616zM192.034 228.058V191.178C190.93 189.806 188.499 187.535 186.722 187.535C184.788 187.535 184.32 188.858 184.32 190.816V228.047H175.297V187.437C175.297 182.637 176.752 178.755 181.606 178.755C184.34 178.755 188.129 180.176 192.036 184.824V179.453H201.079V228.037H192.036V228.058zM178.743 128.482C179.378 127.662 179.671 126.47 179.671 124.927V101.04C179.671 99.546 179.437 98.481 178.929 97.847C177.982 96.607 175.921 96.665 174.534 97.368C173.87 97.7 173.206 98.227 172.503 99.009V127.848C173.089 128.483 173.675 128.971 174.261 129.254C175.774 129.996 177.718 129.85 178.743 128.482zM207.718 129.518C204.534 129.518 203.87 127.291 203.87 124.088V119.4H211.487V124.088C211.467 127.213 210.823 129.518 207.737 129.518H207.718zM233.948 95.377C233.948 83.951 224.671 74.664 213.245 74.664H106.761C95.335 74.664 86.053 83.932 86.053 95.377V147.701C86.053 159.137 95.335 168.405 106.761 168.405H213.235C224.671 168.405 233.948 159.137 233.948 147.701V95.377L233.948 95.377zM120.955 143.795H130.975V152.916H101.244V143.795H111.273V90.201H120.965L120.955 143.795zM155.423 136.451H146.824V101.344C145.764 100.026 143.43 97.887 141.761 97.887C139.935 97.887 139.471 99.127 139.471 101.002V136.471H130.863V97.799C130.863 88.404 137.235 88.356 141.874 91.002C143.583 91.979 145.233 93.424 146.835 95.299V90.201H155.434V136.471L155.423 136.451zM188.519 125.445C188.519 131.715 186.429 137.037 180.14 137.037C177.074 137.037 174.437 135.074 172.503 132.721V152.916H163.802V90.201H172.503V93.726C174.905 90.728 177.513 89.585 180.667 89.585C186.39 89.585 188.519 94.028 188.519 99.771V125.445L188.519 125.445zM220.325 124.01C220.325 132.369 216.331 137.604 208.089 137.604C200.316 137.604 195.023 132.038 195.023 124.01V103.248C195.023 94.918 199.222 88.932 207.445 88.932C216.507 88.932 220.345 94.342 220.345 103.248V106.725H211.488V103.502C211.488 99.479 211.273 97.047 207.64 97.047C204.173 97.047 203.89 100.055 203.89 103.502V112.252H220.345L220.335 124.01H220.325z" />
    <glyph glyph-name="0064-solutions-hosted"
      unicode="&#xE040;"
      horiz-adv-x="320" d=" M80.06 90.629L88.17 101.586H235.011L241.603 90.629H80.069H80.06zM283.712 72.66L245.353 122.836H94.991V111.859H239.737L268.243 74.808H52.262L81.251 109.73L81.241 125.57C77.633 124.711 73.98 123.929 70.279 123.363V113.822L36.402 72.816C35.04 71.175 34.761 68.91 35.66 66.976C36.563 65.062 38.482 63.831 40.621 63.831H279.366C281.475 63.831 283.36 65.013 284.288 66.897C285.226 68.762 284.991 70.999 283.722 72.659H283.712zM70.279 190.253V215.204C70.279 223.993 77.432 231.166 86.221 231.166H109.712C108.608 227.372 107.139 223.705 105.313 220.194H86.221C83.472 220.194 81.221 217.963 81.221 215.214V195.165C77.759 193.183 74.092 191.532 70.279 190.272V190.253zM228.302 220.185C231.027 220.185 233.282 217.954 233.282 215.205V133.032H244.239V215.205C244.239 223.994 237.091 231.167 228.301 231.167H176.271C175.773 227.466 175.08 223.804 174.24 220.195H228.302V220.185zM121.92 256.1670000000001H166.925C167.101 253.555 167.218 250.938 167.218 248.296C167.218 226.406 161.09 205.108 149.542 186.655C128.854 153.637 93.79 133.539 55.133 132.191V177.016C78.243 178.334 99.132 190.615 111.564 210.454C118.644 221.767 122.379 234.834 122.379 248.276C122.379 250.947 122.213 253.564 121.92 256.1670000000001z" />
    <glyph glyph-name="0065-solutions-intergrated"
      unicode="&#xE041;"
      horiz-adv-x="320" d=" M160.068 249.769H28.369C24.448 249.769 21.26 246.59 21.26 242.6600000000001L21.27 164.887C21.27 160.961 24.449 157.758 28.37 157.758H128.033V201.049C128.033 208.368 133.98 214.32 141.309 214.32H167.207V242.64C167.207 246.58 163.999 249.759 160.068 249.759V249.769zM94.219 165.657C91.45 165.657 89.219 167.898 89.219 170.667C89.219 173.44 91.45 175.677 94.219 175.677C97.002 175.677 99.229 173.441 99.229 170.667C99.229 167.898 97.002 165.657 94.219 165.657zM141.289 203.367H167.178V164.895C167.178 160.969 163.999 157.766 160.069 157.766H138.989V201.057C138.989 202.327 140.029 203.357 141.289 203.357V203.367zM117.998 129.158H70.439V140.955H117.998V129.158zM100.142 153.064H88.34V145.154H100.142V153.064zM246.543 70.232H180.195V82.029H246.543V70.232L246.543 70.232zM208.281 98.66H196.484V85.603H208.281V98.66zM230.254 85.604H218.438V98.66H230.254V85.604zM280.625 130.467H146.128V142.264H280.625V130.467zM213.359 127.732C210.341 127.732 207.88 125.271 207.88 122.244C207.88 119.226 210.341 116.775 213.359 116.775C216.386 116.775 218.838 119.236 218.838 122.244S216.406 127.732 213.359 127.732zM285.459 214.339H167.207V203.367H285.459C286.7290000000001 203.367 287.754 202.327 287.754 201.067V115.935C287.754 114.656 286.719 113.63 285.459 113.63H141.289C140.019 113.63 138.989 114.665 138.989 115.935V157.767H128.032V115.936C128.032 108.612 133.989 102.655 141.308 102.655H285.458C292.772 102.655 298.7390000000001 108.612 298.7390000000001 115.936V201.058C298.7290000000001 208.377 292.772 214.339 285.468 214.339H285.459z" />
    <glyph glyph-name="0066-solutions-online"
      unicode="&#xE042;"
      horiz-adv-x="320" d=" M89.294 113.182H41.081C38.972 113.182 37.033 114.412 36.14 116.317C35.242 118.241 35.51 120.497 36.872 122.118L70.632 162.987V263.997C70.632 272.767 77.771 279.886 86.53 279.886H228.069C236.819 279.886 243.967 272.777 243.967 263.997V182.107H233.05L233.03 263.997C233.03 266.736 230.803 268.968 228.069 268.968H86.531C83.782 268.968 81.551 266.737 81.551 263.997L81.575 158.919L52.683 124.129H83.43L89.304 113.182H89.294zM283.274 122L245.032 171.966H229.583C233.187 168.758 235.589 165.12 237.132 161.038H239.437L267.8350000000001 124.129H239.681V113.201H278.929C280.999 113.201 282.904 114.373 283.812 116.258C284.73 118.123 284.5350000000001 120.36 283.265 122.01L283.274 122zM212.64 168.597C207.562 170.56 176.976 181.697 175.687 182.146L171.917 171.79C172.229 171.678 203.694 160.218 208.655 158.309C216.077 155.448 217.102 153.69 217.102 143.866V102.88L202.698 55.77C201.78 53.026 199.231 51.151 196.311 51.151H152.17C149.704 51.151 147.434 52.518 146.272 54.686L99.124 142.733C97.381 145.975 98.621 150.057 101.873 151.815C103.265 152.557 105.154 152.635 107.005 152.001C108.753 151.425 110.291 150.253 111.014 148.905L123.851 126.542C125.091 124.374 127.645 123.319 130.062 123.964C132.484 124.599 134.164 126.796 134.164 129.296L134.003 222.45C134.003 226.01 136.903 228.89 140.453 228.89C144.013 228.89 146.903 225.999 146.903 222.45V156.849H157.943V222.45C157.943 232.089 150.101 239.921 140.453 239.921C130.814 239.921 122.973 232.079 122.973 222.431L123.095 150.048L120.673 154.257C118.695 157.958 115.004 160.971 110.527 162.45C105.713 164.056 100.796 163.739 96.655 161.517C88.047 156.878 84.804 146.112 89.404 137.508L136.552 49.471C139.643 43.7 145.634 40.116 152.172 40.116H196.313C204.008 40.116 210.776 45.009 213.208 52.401L227.896 100.419C228.052 100.956 228.13 101.464 228.13 102.03V143.836C228.11 156.556 225.806 163.489 212.622 168.587L212.64 168.597z" />
    <glyph glyph-name="0067-support-chat"
      unicode="&#xE043;"
      horiz-adv-x="320" d=" M202.013 188.764C194.572 214.706 170.695 233.764 142.379 233.764C108.17 233.764 80.318 205.912 80.318 171.703C80.318 166.825 80.889 161.981 82.003 157.304C83.082 152.777 84.669 148.353 86.739 144.173C86.842 143.987 86.949 143.782 87.071 143.597C88.292 141.185 89.688 138.87 91.221 136.624L99.649 143.665C98.511 145.403 97.471 147.171 96.558 149.026C96.47 149.202 96.382 149.378 96.26 149.553C94.678 152.844 93.452 156.301 92.622 159.812C91.699 163.674 91.25 167.673 91.25 171.702C91.25 199.881 114.189 222.82 142.368 222.82C170.576 222.82 193.525 199.871 193.525 171.702C193.525 143.498 170.576 120.549 142.368 120.549C138.379 120.549 134.399 121.018 130.542 121.916C126.748 122.814 123.11 124.143 119.731 125.812L119.292 126.037C119.248 126.057 119.219 126.076 119.18 126.096C115.689 127.981 111.729 128.967 107.749 128.967C101.309 128.967 95.229 126.447 90.669 121.897L98.379 114.153C102.378 118.147 108.55 119.28 113.96 116.507C114.048 116.468 114.141 116.409 114.238 116.37L114.839 116.058C119.009 113.988 123.438 112.386 128.018 111.292C132.71 110.179 137.549 109.632 142.378 109.632C142.842 109.632 143.281 109.691 143.721 109.71C153.12 95.608 169.053 86.233 187.237 86.233C191.28 86.233 195.362 86.712 199.385 87.659C203.233 88.577 206.963 89.925 210.537 91.682L211.396 92.121C215.166 94.045 220.058 93.303 223.095 90.275L230.82 97.99C226.845 101.955 221.572 104.133 215.966 104.133C212.509 104.133 209.052 103.274 206.044 101.643L205.653 101.428C202.85 100.061 199.891 98.987 196.864 98.274C193.671 97.522 190.419 97.131 187.216 97.131C174.853 97.131 163.788 102.619 156.181 111.213C183.759 117.522 204.423 142.209 204.423 171.682C204.423 173.293 204.306 174.89 204.179 176.472C218.642 169.973 228.749 155.515 228.749 138.674C228.749 135.412 228.368 132.16 227.626 129.026C226.903 125.999 225.839 123.069 224.462 120.276C224.159 119.641 223.739 119.065 223.398 118.46L231.757 111.204C232.626 112.591 233.525 113.948 234.247 115.413H234.257C236.005 118.948 237.353 122.679 238.261 126.507C239.208 130.472 239.677 134.573 239.677 138.685C239.677 162.455 223.72 182.362 202.001 188.764H202.013z" />
    <glyph glyph-name="0068-support-message"
      unicode="&#xE044;"
      horiz-adv-x="320" d=" M197.717 170.521C197.717 166.908 194.787 163.988 191.184 163.988C187.571 163.988 184.641 166.918 184.641 170.521C184.641 174.129 187.571 177.049 191.184 177.049C194.787 177.049 197.717 174.119 197.717 170.521z M164.934 170.521C164.934 166.908 162.004 163.988 158.401 163.988C154.802 163.988 151.873 166.918 151.873 170.521C151.873 174.129 154.803 177.049 158.401 177.049C162.004 177.049 164.934 174.119 164.934 170.521z M132.121 170.53C132.121 166.917 129.191 163.997 125.593 163.997S119.06 166.927 119.06 170.53C119.06 174.138 121.995 177.058 125.593 177.058S132.121 174.129 132.121 170.53z M224.191 226.39H95.832C86.774 226.39 79.392 219.027 79.392 209.959V138.807C79.392 129.764 86.76 122.381 95.832 122.381H117.414V133.299H95.832C92.79 133.299 90.31 135.77 90.31 138.807V209.959C90.31 212.996 92.79 215.467 95.832 215.467H224.191C227.228 215.467 229.689 212.996 229.689 209.959V138.807C229.689 135.77 227.228 133.299 224.191 133.299H148.4C146.691 133.299 145.06 132.498 144.03 131.111L120.812 100.173L129.542 93.611L151.12 122.361H224.182C233.225 122.361 240.608 129.744 240.608 138.797V209.949C240.608 219.016 233.225 226.38 224.182 226.38L224.191 226.39z" />
    <glyph glyph-name="0069-support-phone"
      unicode="&#xE045;"
      horiz-adv-x="320" d=" M217.099 121.018L207.245 138.088C202.899 145.588 193.27 148.166 185.761 143.83L169.394 134.396L174.472 125.607L190.839 135.041C193.515 136.584 196.913 135.666 198.456 133L208.319 115.93C209.862 113.274 208.944 109.866 206.268 108.323L181.63 94.104C178.984 92.561 175.566 93.459 174.003 96.135L111.659 204.104C110.121 206.77 111.049 210.183 113.72 211.721L138.359 225.94C141.02 227.483 144.428 226.56 145.981 223.894L155.722 207.024C157.26 204.353 156.352 200.93 153.681 199.402L137.319 189.944L164.531 142.874L173.32 147.942L151.21 186.252L158.759 190.612C166.269 194.943 168.866 204.582 164.521 212.091L154.658 229.142C150.278 236.51 140.742 239.02 133.281 234.723L108.651 220.5C101.131 216.159 98.539 206.511 102.889 199.011L165.233 91.037C169.569 83.537 179.208 80.93 186.708 85.275L211.347 99.494C218.867 103.84 221.464 113.498 217.118 120.998L217.099 121.018z" />
    <glyph glyph-name="0070-symbol-box-down"
      unicode="&#xE046;"
      horiz-adv-x="320" d=" M180.609 252.148L172.826 244.36L221.058 196.147V78.848H98.956V192.93H161.963V203.921H87.955V67.851H232.045V200.698L180.609 252.148z M154.438 147.696V107.676L132.33 129.783L124.547 121.99L155.879 90.683C157.959 88.408 162.061 88.454 164.086 90.761L195.326 121.972L187.557 129.765L165.438 107.656V147.695H154.438z M172.172 179.932H147.325C143.365 177.388 142.218 172.588 141.895 169.849V167.183H177.974V169.048C177.74 171.698 176.713 177.279 172.172 179.922V179.932z" />
    <glyph glyph-name="0071-symbol-box-up"
      unicode="&#xE047;"
      horiz-adv-x="320" d=" M180.609 252.148L172.826 244.36L221.058 196.147V78.847H98.955V192.93H161.963V203.921H87.954V67.852H232.045V200.698L180.609 252.148z M165.434 89.004V129.024L187.543 106.915L195.326 114.708L163.994 146.016C161.914 148.291 157.812 148.243 155.786 145.938L124.546 114.727L132.315 106.934L154.434 129.043V89.004H165.434z M172.172 179.932H147.324C143.364 177.388 142.217 172.588 141.894 169.849V167.183H177.973V169.048C177.739 171.699 176.713 177.28 172.172 179.922V179.932z" />
    <glyph glyph-name="0072-symbol-career"
      unicode="&#xE048;"
      horiz-adv-x="320" d=" M99.158 189.35C80.887 189.35 66.018 204.189 66.018 222.451C66.018 240.708 80.886 255.581 99.158 255.581C117.41 255.581 132.278 240.718 132.278 222.451C132.278 204.179 117.419 189.35 99.158 189.35zM99.158 245.17C86.638 245.17 76.458 234.97 76.458 222.46C76.458 209.96 86.639 199.789 99.158 199.789S121.858 209.97 121.858 222.46C121.868 234.979 111.677 245.17 99.158 245.17z M220.799 189.35C202.547 189.35 187.674 204.189 187.674 222.451C187.674 240.708 202.547 255.581 220.799 255.581C239.07 255.581 253.924 240.718 253.924 222.451C253.924 204.179 239.07 189.35 220.799 189.35zM220.799 245.17C208.279 245.17 198.104 234.97 198.104 222.46C198.104 209.96 208.29 199.789 220.799 199.789S243.494 209.97 243.494 222.46C243.494 234.979 233.309 245.17 220.799 245.17z M220.799 174.779C204.656 174.779 189.822 165.98 182 151.728C182 151.728 169.256 123.808 167.557 120.039L146.316 100.741C143.596 102.196 140.549 103.134 137.229 103.134C126.56 103.134 117.869 94.443 117.869 83.759C117.869 83.32 117.976 82.909 118.011 82.47H89.3C80.247 101.142 67.957 126.454 65.447 131.738C66.018 150.146 80.637 164.37 99.177 164.37C117.8 164.37 132.947 149.238 132.947 130.635H143.377C143.377 154.99 123.548 174.79 99.178 174.79C74.417 174.79 55.008 155.4 55.008 130.635C55.008 129.219 55.008 129.219 81.351 75L82.787 72.061H121.937C125.467 67.461 130.99 64.424 137.249 64.424C147.937 64.424 156.619 73.115 156.619 83.789C156.619 87.334 155.579 90.615 153.909 93.486L176.073 113.486L191.229 146.845C197.147 157.66 208.495 164.369 220.829 164.369C235.683 164.369 248.241 154.628 252.714 141.268C220.429 139.012 194.843 112.108 194.843 79.286H224.023C224.023 96.63 237.529 110.77 254.589 112.03V79.286H264.999V130.634C265.009 154.999 245.194 174.809 220.829 174.809L220.799 174.779zM137.219 74.813C132.297 74.813 128.279 78.807 128.279 83.758C128.279 88.68 132.288 92.684 137.219 92.684C142.146 92.684 146.159 88.68 146.159 83.758C146.16 78.808 142.136 74.813 137.219 74.813z" />
    <glyph glyph-name="0073-symbol-customs"
      unicode="&#xE049;"
      horiz-adv-x="320" d=" M64.868 226.829V258.899L127.402 239.006L120.298 251.8L128.56 264.017H70.259V274.808H148.901L132.959 251.239L150.059 220.477L75.66 244.149V226.83C75.66 214.608 85.621 204.657 97.872 204.657C107.301 204.657 115.719 210.648 118.81 219.55L129.01 216.01C124.399 202.757 111.87 193.87 97.861 193.87C79.677 193.87 64.887 208.645 64.887 226.819L64.868 226.829zM216.221 136.951C212.842 134.783 211.856 130.701 211.582 128.357V126.072H242.432V127.674C242.246 129.93 241.348 134.705 237.471 136.951H216.221zM132.642 189.72H115.45V178.939H132.642C137.671 178.939 141.758 174.52 141.758 169.09V115.809L71.231 189.349L65.63 189.71H56.67C45.679 189.71 36.748 180.457 36.748 169.09V75.379H141.772V56.17H38.872V45.389H152.559V86.17H47.539V169.09C47.539 174.52 51.641 178.939 56.68 178.939H65.279L66.363 178.871L152.568 88.982V169.1C152.568 180.477 143.637 189.73 132.651 189.73L132.642 189.72zM283.242 157.42L201.543 239.139L193.164 230.75L272.637 151.277V55.808H181.387V147.068H251.309V157.43H170.762L170.772 45.194H283.252L283.242 157.43V157.42z" />
    <glyph glyph-name="0074-symbol-dashboard"
      unicode="&#xE04A;"
      horiz-adv-x="320.003" d=" M221.567 220.226C205.505 236.288 184.091 245.6570000000001 160 245.6570000000001S114.495 236.2890000000001 98.437 220.227C82.375 204.167 73.007 182.7530000000001 73.007 158.6640000000001H81.037C81.037 180.0760000000001 89.067 198.8120000000001 103.789 213.5360000000001C118.513 228.2590000000001 138.587 236.2890000000001 158.663 236.2890000000001C178.738 236.2890000000001 198.813 228.2590000000001 213.535 213.5360000000001C228.259 198.8120000000001 236.288 178.739 236.288 158.6640000000001H244.319C246.997 181.416 237.627 204.167 221.567 220.226z M162.679 160.002L162.679 160.002L143.943 185.431L134.575 178.741L151.971 153.309C150.633 151.971 150.633 149.293 150.633 147.956C150.633 141.265 155.987 135.91 162.677 135.91C169.369 135.91 174.723 141.2640000000001 174.723 147.956S169.37 160.002 162.679 160.002zM162.679 145.28C161.339 145.28 160.001 146.618 160.001 147.956C160.001 149.293 161.34 150.634 162.679 150.634S165.356 149.293 165.356 147.956C165.355 146.618 164.016 145.28 162.679 145.28z M160.001 281.793C93.083 281.793 38.21 226.92 38.21 160.002S93.084 38.211 160.001 38.211C226.919 38.211 281.793 93.084 281.793 160.002S226.919 281.793 160.001 281.793zM160.001 54.27C101.114 54.27 54.271 101.1130000000001 54.271 160.0000000000001S101.116 265.7300000000001 160.001 265.7300000000001C218.891 265.7300000000001 265.732 218.8870000000001 265.732 160.0000000000001C265.733 102.452 218.889 54.27 160.001 54.27z" />
    <glyph glyph-name="0075-symbol-figures"
      unicode="&#xE04B;"
      horiz-adv-x="320" d=" M84.834 107.105H107.466V96.216H84.834V107.105z M84.834 128.277H107.466V117.418H84.834V128.277z M84.834 149.469H107.466V138.61H84.834V149.469z M72.496 170.645H107.457V159.776H72.496V170.645z M84.834 191.846H107.466V180.987H84.834V191.846z M84.834 213.038H107.466V202.179H84.834V213.038z M84.834 234.205H107.466V223.346H84.834V234.205z M124.908 244.966V98.57C124.908 98.57 133.214 98.57 135.225 98.57C137.227 98.57 137.803 100.025 137.803 100.025L171.832 156.943L187.144 142.222L225.718 204.785L216.5 210.464L184.967 159.375L169.537 174.258L135.787 117.808V234.087H236.627V91.334C236.627 88.346 234.195 85.914 231.197 85.914H72.505V75.025H231.227C240.192 75.025 247.506 82.359 247.506 91.334V244.976H124.927L124.908 244.966z" />
    <glyph glyph-name="0076-symbol-industry-solutions"
      unicode="&#xE04C;"
      horiz-adv-x="320" d=" M159.99 233.169C130.058 233.169 105.698 208.809 105.698 178.862C105.698 163.091 113.369 152.187 122.251 139.59L123.54 137.754C127.471 132.158 129.712 122.012 129.712 109.766L140.781 109.922C140.781 118.33 139.731 133.984 132.597 144.151L131.298 145.997C122.871 157.969 116.782 166.621 116.782 178.882C116.782 202.72 136.162 222.09 159.98 222.09C183.818 222.09 203.222 202.681 203.222 178.882C203.222 166.631 197.128 157.988 188.701 146.035L187.383 144.16C183.633 138.818 179.17 128.574 179.19 110.029L184.747 109.785L190.274 110.029C190.274 126.504 194.151 134.502 196.465 137.812L197.774 139.667C206.641 152.265 214.297 163.148 214.297 178.91C214.317 208.827 189.942 233.197 159.99 233.197V233.169z M154.458 275.059H165.547V245.079H154.458V275.059z M63.428 184.019H93.399V172.93H63.428V184.019z M226.602 184.019H256.573V172.93H226.602V184.019z M108.989 135.273L116.831 127.412L95.64 106.26L87.798 114.121L108.989 135.273z M211.016 221.641L203.164 229.478L224.336 250.679L232.188 242.842L211.016 221.641z M211.035 135.293L232.207 114.111L224.375 106.269L203.184 127.461L211.035 135.293z M108.95 221.641L87.768 242.842L95.62 250.689L116.802 229.488L108.95 221.641z M167.676 82.08H152.09C149.61 80.488 148.892 77.49 148.692 75.771V74.101H171.299V75.253C171.172 76.914 170.527 80.43 167.676 82.08z M128.989 44.941H191.035V100.527H128.989V44.941zM140.068 89.453H179.931V56.015H140.068V89.453z" />
    <glyph glyph-name="0077-symbol-invoices"
      unicode="&#xE04D;"
      horiz-adv-x="320" d=" M227.235 74.256C227.235 71.317 224.833 69.002 221.883 69.002H125.696V212.649C125.696 215.608 128.098 218.03 131.048 218.03H174.51V166.648H238.914L174.511 228.997H131.049C122.079 228.997 114.779 221.629 114.779 212.649V58.084H221.864C230.839 58.084 238.153 65.291 238.153 74.256V153.924H227.235V74.256zM185.39 203.069L211.122 177.566H185.39V203.069z M92.021 245.569C92.021 248.528 94.418 250.93 97.368 250.93H193.28V224.665L204.286 214.465V261.916H97.367C88.397 261.916 81.088 254.548 81.088 245.568V90.994H104.389V101.893H92.021V245.569z M140.351 147.479H209.013V136.561H140.351V147.479z M197.313 82.83V94.539H209.032V105.457H197.313V117.186H186.396V105.457H174.677V94.539H186.396V82.83H197.313z" />
    <glyph glyph-name="0078-symbol-items"
      unicode="&#xE04E;"
      horiz-adv-x="320.003" d=" M105.74 113.585H67.823L71.745 134.505H109.663L117.5080000000001 182.884H80.8990000000001L84.8210000000001 203.804H122.7390000000001L133.1990000000001 261.3340000000001H156.7340000000001L146.2740000000001 203.804H190.7290000000001L201.1890000000001 261.3340000000001H224.7240000000001L214.2640000000001 203.804H252.1820000000002L248.2600000000001 182.884H210.3420000000001L201.1890000000001 134.505H239.1070000000001L235.1850000000001 113.585H198.5750000000001L189.422 58.669H165.887L175.04 113.585H130.584L121.432 58.669H97.897L105.74 113.585zM176.346 134.505L185.499 182.883H141.043L131.89 134.505H176.346z" />
    <glyph glyph-name="0079-symbol-network"
      unicode="&#xE04F;"
      horiz-adv-x="320" d=" M223.19 90.438L233.053 81.317L225.455 73.094L215.611 82.215L223.19 90.438zM144.265 163.48L136.677 155.257L146.545 146.141L154.118 154.344L144.265 163.49V163.48zM94.958 209.12L85.104 218.261L77.516 210.038L87.365 200.917L94.958 209.13V209.12zM75.236 227.387L65.368 236.508L57.746 228.3L67.619 219.159L75.236 227.377V227.387zM208.171 159.999L198.054 135.302C202.702 132.138 206.081 127.294 207.478 121.659H262.253V110.468H207.497C207.126 109.032 206.647 107.646 206.042 106.298L213.337 99.55L205.71 91.327L198.972 97.577C195.056 94.608 190.242 92.763 184.958 92.763C183.542 92.763 182.146 92.939 180.808 93.193L170.935 69.091L160.579 73.329L170.612 97.88C166.628 101.025 163.698 105.4 162.458 110.468H66.369V121.659H162.438C163.068 124.179 164.064 126.513 165.417 128.622L156.398 136.981L163.986 145.204L173.62 136.278C176.999 138.153 180.817 139.344 184.929 139.344C185.798 139.344 186.618 139.188 187.449 139.09L197.957 164.7C194.08 167.849 191.277 172.088 190.018 177.029C190.018 177.068 190.018 177.117 190.018 177.136C190.018 177.126 190.018 177.107 190.018 177.077H135.104C132.584 166.935 123.458 159.387 112.545 159.387C101.637 159.387 92.535 166.936 90.006 177.077H66.334V188.29H90.025C92.545 198.417 101.656 205.971 112.545 205.971S132.555 198.417 135.084 188.29L190.094 188.261C190.651 190.488 191.432 192.651 192.643 194.657C196.823 201.639 204.498 205.98 212.643 205.98C213.346 205.98 214.049 205.76 214.752 205.687L233.277 250.907L243.638 246.659L225.357 202.069C230.425 198.729 233.824 193.749 235.201 188.216C235.201 188.245 235.201 188.26 235.201 188.289H262.213V177.098H235.095C234.568 174.92 233.806 172.757 232.595 170.726C228.396 163.748 220.73 159.408 212.575 159.408C211.1 159.388 209.616 159.711 208.132 159.989L208.171 159.999zM124.685 182.68C124.685 189.36 119.265 194.789 112.585 194.789S100.515 189.359 100.515 182.68C100.515 176.01 105.935 170.6 112.585 170.6C119.265 170.59 124.685 176.01 124.685 182.68zM197.067 116.083C197.067 122.743 191.647 128.153 184.967 128.153C178.307 128.153 172.867 122.723 172.867 116.083C172.867 109.403 178.306 103.974 184.967 103.974C191.647 103.993 197.067 109.403 197.067 116.083zM206.433 172.328C208.318 171.19 210.456 170.59 212.624 170.59C216.921 170.59 220.817 172.797 223.005 176.479C226.452 182.202 224.597 189.648 218.874 193.081C216.979 194.199 214.851 194.79 212.683 194.79C208.367 194.79 204.509 192.588 202.292 188.921C200.632 186.138 200.144 182.9 200.944 179.78C201.735 176.64 203.688 173.989 206.452 172.329H206.433z" />
    <glyph glyph-name="0080-symbol-people-network"
      unicode="&#xE050;"
      horiz-adv-x="320" d=" M207.938 166.812C198.836 166.812 190.575 163.55 183.934 158.301C177.313 163.55 169.08 166.812 159.998 166.812C150.887 166.812 142.63 163.55 135.989 158.301C129.358 163.55 121.14 166.812 112.039 166.812C90.54 166.812 73.06 149.346 73.06 127.862V83.79H84.129V127.862C84.129 143.253 96.658 155.762 112.039 155.762C118.128 155.762 123.748 153.75 128.318 150.41C123.749 144.034 121 136.3 121 127.872V83.8H132.069V127.872C132.069 143.263 144.598 155.772 159.999 155.772C166.083 155.772 171.688 153.76 176.269 150.42C171.699 144.033 168.974 136.299 168.974 127.871V83.8H180.029V127.872C180.029 143.263 192.549 155.772 207.949 155.772S235.869 143.262 235.869 127.872V83.8H246.943V127.872C246.923 149.366 229.443 166.822 207.939 166.822V166.812z M112.03 177.223C121.918 177.223 130.668 182.15 136.009 189.66C141.361 182.149 150.102 177.223 159.999 177.223C169.901 177.223 178.622 182.15 183.974 189.65C189.326 182.15 198.056 177.223 207.958 177.223C224.228 177.223 237.44 190.441 237.44 206.701C237.44 222.98 224.227 236.203 207.958 236.203C198.056 236.203 189.325 231.252 183.974 223.752C178.622 231.272 169.872 236.213 159.99 236.213C150.102 236.212 141.361 231.271 136 223.751C130.658 231.271 121.928 236.212 112.021 236.212C95.761 236.212 82.539 222.98 82.539 206.73C82.528 190.45 95.771 177.232 112.021 177.232L112.03 177.223zM207.938 225.133C218.094 225.133 226.395 216.871 226.395 206.691C226.395 196.54 218.094 188.273 207.938 188.273S189.511 196.539 189.511 206.69C189.511 216.871 197.763 225.133 207.938 225.133zM159.989 225.133C170.145 225.133 178.397 216.871 178.397 206.691C178.397 196.54 170.145 188.273 159.989 188.273C149.808 188.273 141.547 196.54 141.547 206.691C141.547 216.871 149.809 225.133 159.989 225.133zM112.03 225.133C122.201 225.133 130.468 216.871 130.468 206.691C130.468 196.54 122.201 188.273 112.03 188.273C101.879 188.273 93.607 196.54 93.607 206.691C93.607 216.871 101.869 225.133 112.03 225.133z" />
    <glyph glyph-name="0081-symbol-press"
      unicode="&#xE051;"
      horiz-adv-x="320" d=" M128.35 165.418L125.288 175.76L203.818 198.997L206.875 188.66L128.35 165.418z M176.543 127.811L167.48 158.396L227.1 176.067L236.172 145.486L225.82 142.42L219.804 162.659L180.908 151.131L186.894 130.887L176.543 127.811z M119.6 132.957L116.538 143.318L155.171 154.744L158.228 144.373L119.6 132.957z M125.239 113.904L122.158 124.256L160.771 135.75L163.847 125.398L125.239 113.904z M262.979 150.154L236.543 239.319L71.069 190.276L97.509 101.091C98.681 97.126 96.41 92.946 92.45 91.775L92.45 91.775C88.49 90.603 84.33 92.859 83.158 96.834L66.62 152.654L56.268 149.578L72.806 93.758C75.16 85.828 82.469 80.682 90.35 80.682C92.059 80.682 93.788 80.916 95.531 81.424L95.531 81.424C95.531 81.424 95.531 81.424 95.551 81.444L250.645 127.43C260.313 130.291 265.85 140.506 262.969 150.155H262.979zM252.031 141.385C251.074 139.608 249.511 138.328 247.588 137.752L108.452 96.482C108.779 98.982 108.608 101.589 107.871 104.138L84.492 182.967L229.258 225.897L252.637 147.069C253.203 145.135 253.008 143.123 252.031 141.385L252.031 141.385z" />
    <glyph glyph-name="0082-symbol-responsibility"
      unicode="&#xE052;"
      horiz-adv-x="320" d=" M163.065 145.391C156.752 166.319 157.792 188.072 166.908 204.312C173.715 216.392 184.232 224.683 197.875 228.838C195.639 224.439 194.174 219.57 192.836 215.122C188.959 202.261 185.697 191.968 170.453 191.03C169.408 187.49 168.676 183.818 168.197 180.029C193.529 180.122 199.31 198.32 203.402 211.919C207.357 225.049 209.916 231.909 220.746 231.909H220.883L220.951 242.939C192.142 242.968 169.467 231.289 157.333 209.692C147.187 191.65 145.482 168.618 151.435 146.094C155.043 145.83 158.906 145.567 163.085 145.41L163.065 145.391z M254.232 165.801C252.484 168.95 249.388 170.781 245.697 170.781C227.465 170.781 221.908 158.818 217.445 149.228C212.826 139.277 208.646 130.703 192.006 129.726C185.639 135.253 176.85 137.656 169.916 137.714C158.036 137.773 148.754 138.73 140.565 139.6C125.384 141.192 113.392 142.442 98.294 135.567C80.482 127.432 64.202 103.663 64.114 85.704L75.154 85.665C75.193 97.95 88.001 118.741 102.864 125.528C115.232 131.163 124.851 130.137 139.412 128.633C147.864 127.735 157.444 126.719 169.876 126.67C170.052 126.67 188.411 126.445 189.329 112.207C187.317 112.207 184.27 112.363 180.97 112.519C172.865 112.929 160.623 113.515 141.375 113.574L141.312 102.539C160.345 102.471 172.425 101.894 180.414 101.504C191.625 100.957 195.023 100.791 197.953 103.574C200.375 105.879 200.404 108.926 200.404 110.937C200.424 114.13 199.818 116.875 198.959 119.414C217.221 122.754 223.1 135.137 227.484 144.59C231.986 154.278 234.857 159.448 244.838 159.732C246.049 154.278 239.682 134.542 233.217 124.297C222.533 107.324 210.414 88.086 182.611 88.086H123.934V77.061H182.611C216.498 77.061 231.576 100.957 242.562 118.389C246.83 125.176 260.599 154.258 254.232 165.791V165.801z" />
    <glyph glyph-name="0083-symbol-service-b"
      unicode="&#xE053;"
      horiz-adv-x="320" d=" M196.632 216.678C197.862 216.727 199.093 216.81 200.333 216.81C202.833 216.81 205.304 216.678 207.765 216.498V283.329C207.765 286.42 205.265 288.9100000000001 202.199 288.9100000000001H32.311V277.767H196.632V216.688V216.678z M200.343 206.39C197.257 206.39 194.777 203.89 194.777 200.809V124.315H149.669V113.163H200.343C203.419 113.163 205.919 115.683 205.919 118.749V195.048C245.519 192.182 276.847 159.047 276.847 118.749C276.847 76.561 242.531 42.265 200.353 42.265C158.17 42.265 123.854 76.581 123.854 118.749C123.854 152.03 145.114 181.278 176.74 191.518L173.302 202.128C164.122 199.149 155.709 194.77 148.263 189.272C124.782 226.43 83.434 251.201 36.339 251.22L36.271 251.259H32.023V118.759C32.023 115.663 34.523 113.183 37.604 113.183H102.482C102.37 115.029 102.321 116.874 102.321 118.749S102.38 122.479 102.482 124.335H43.17V205.258C77.662 202.519 106.451 179.487 117.799 148.163C114.513 138.905 112.692 129.003 112.692 118.739C112.692 70.409 152.013 31.093 200.343 31.093S287.98 70.409 287.98 118.739C287.99 167.079 248.683 206.4 200.353 206.4L200.343 206.39z" />
    </font>
</defs>
</svg>
